G04*
G04 #@! TF.GenerationSoftware,Altium Limited,Altium Designer,18.1.6 (161)*
G04*
G04 Layer_Physical_Order=2*
G04 Layer_Color=16711680*
%FSLAX25Y25*%
%MOIN*%
G70*
G01*
G75*
%ADD26C,0.02000*%
%ADD27R,0.05906X0.05906*%
%ADD28C,0.05906*%
%ADD29R,0.05906X0.05906*%
%ADD30C,0.05000*%
G36*
X273042Y79245D02*
X272542Y79038D01*
X272440Y79140D01*
X271813Y79620D01*
X271083Y79923D01*
X270300Y80026D01*
X267801D01*
X267524Y80442D01*
X267620Y80676D01*
X267791Y81969D01*
X267620Y83262D01*
X267121Y84466D01*
X266328Y85501D01*
X265293Y86295D01*
X264320Y86698D01*
Y87239D01*
X265293Y87642D01*
X266328Y88436D01*
X267121Y89471D01*
X267620Y90676D01*
X267791Y91969D01*
X267620Y93261D01*
X267121Y94466D01*
X266328Y95501D01*
X265293Y96295D01*
X264088Y96794D01*
X262795Y96964D01*
X261502Y96794D01*
X260297Y96295D01*
X259263Y95501D01*
X258469Y94466D01*
X258066Y93493D01*
X257525D01*
X257121Y94466D01*
X256328Y95501D01*
X255293Y96295D01*
X254320Y96698D01*
Y97239D01*
X255293Y97642D01*
X256328Y98436D01*
X257121Y99471D01*
X257621Y100676D01*
X257791Y101969D01*
X257621Y103261D01*
X257121Y104466D01*
X256328Y105501D01*
X255293Y106295D01*
X254320Y106698D01*
Y107239D01*
X255293Y107642D01*
X256328Y108436D01*
X257121Y109471D01*
X257525Y110444D01*
X258066D01*
X258469Y109471D01*
X259263Y108436D01*
X260297Y107642D01*
X261502Y107143D01*
X262795Y106973D01*
X264088Y107143D01*
X265293Y107642D01*
X266328Y108436D01*
X267121Y109471D01*
X267620Y110676D01*
X267791Y111969D01*
X267620Y113261D01*
X267121Y114466D01*
X266328Y115501D01*
X265293Y116295D01*
X264320Y116698D01*
Y117239D01*
X265293Y117642D01*
X266328Y118436D01*
X267121Y119471D01*
X267620Y120676D01*
X267791Y121969D01*
X267620Y123261D01*
X267121Y124466D01*
X266328Y125501D01*
X265293Y126295D01*
X264320Y126698D01*
Y127239D01*
X265293Y127642D01*
X266328Y128436D01*
X267121Y129471D01*
X267620Y130676D01*
X267791Y131969D01*
X267620Y133262D01*
X267121Y134466D01*
X266328Y135501D01*
X265293Y136295D01*
X264320Y136698D01*
Y137239D01*
X265293Y137642D01*
X266328Y138436D01*
X267121Y139471D01*
X267620Y140676D01*
X267791Y141969D01*
X267620Y143262D01*
X267121Y144466D01*
X266328Y145501D01*
X265293Y146295D01*
X264320Y146698D01*
Y147239D01*
X265293Y147642D01*
X266328Y148436D01*
X267121Y149471D01*
X267620Y150676D01*
X267791Y151969D01*
X267620Y153261D01*
X267121Y154466D01*
X266328Y155501D01*
X265293Y156295D01*
X264320Y156698D01*
Y157239D01*
X265293Y157642D01*
X266328Y158436D01*
X267121Y159471D01*
X267620Y160676D01*
X267791Y161969D01*
X267620Y163261D01*
X267121Y164466D01*
X266328Y165501D01*
X265293Y166295D01*
X264320Y166698D01*
Y167239D01*
X265293Y167642D01*
X266328Y168436D01*
X267121Y169471D01*
X267620Y170676D01*
X267791Y171969D01*
X267620Y173261D01*
X267121Y174466D01*
X266328Y175501D01*
X265293Y176295D01*
X264320Y176698D01*
Y177239D01*
X265293Y177642D01*
X266328Y178436D01*
X267121Y179471D01*
X267620Y180676D01*
X267791Y181969D01*
X267620Y183262D01*
X267121Y184466D01*
X266328Y185501D01*
X265293Y186295D01*
X264320Y186698D01*
Y187239D01*
X265293Y187642D01*
X266328Y188436D01*
X267121Y189471D01*
X267620Y190676D01*
X267791Y191969D01*
X267620Y193262D01*
X267121Y194466D01*
X266328Y195501D01*
X265293Y196295D01*
X264088Y196794D01*
X262795Y196964D01*
X261502Y196794D01*
X260297Y196295D01*
X259263Y195501D01*
X258469Y194466D01*
X258248Y193933D01*
X257748Y194032D01*
Y196921D01*
X247843D01*
Y187016D01*
X250732D01*
X250831Y186516D01*
X250297Y186295D01*
X249263Y185501D01*
X248469Y184466D01*
X247970Y183262D01*
X247800Y181969D01*
X247970Y180676D01*
X248469Y179471D01*
X249263Y178436D01*
X250297Y177642D01*
X251271Y177239D01*
Y176698D01*
X250297Y176295D01*
X249263Y175501D01*
X248469Y174466D01*
X247970Y173261D01*
X247800Y171969D01*
X247970Y170676D01*
X248469Y169471D01*
X249263Y168436D01*
X250297Y167642D01*
X251271Y167239D01*
Y166698D01*
X250297Y166295D01*
X249263Y165501D01*
X248469Y164466D01*
X247970Y163261D01*
X247800Y161969D01*
X247970Y160676D01*
X248469Y159471D01*
X249263Y158436D01*
X250297Y157642D01*
X251502Y157143D01*
X252795Y156973D01*
X254088Y157143D01*
X255293Y157642D01*
X256328Y158436D01*
X257121Y159471D01*
X257525Y160444D01*
X258066D01*
X258469Y159471D01*
X259263Y158436D01*
X260297Y157642D01*
X261271Y157239D01*
Y156698D01*
X260297Y156295D01*
X259263Y155501D01*
X258469Y154466D01*
X257970Y153261D01*
X257800Y151969D01*
X257970Y150676D01*
X258469Y149471D01*
X259263Y148436D01*
X260297Y147642D01*
X261271Y147239D01*
Y146698D01*
X260297Y146295D01*
X259263Y145501D01*
X258469Y144466D01*
X258066Y143493D01*
X257525D01*
X257121Y144466D01*
X256328Y145501D01*
X255293Y146295D01*
X254088Y146794D01*
X252795Y146964D01*
X251502Y146794D01*
X250297Y146295D01*
X249263Y145501D01*
X248469Y144466D01*
X247970Y143262D01*
X247800Y141969D01*
X247970Y140676D01*
X248469Y139471D01*
X249263Y138436D01*
X250297Y137642D01*
X251271Y137239D01*
Y136698D01*
X250297Y136295D01*
X249263Y135501D01*
X248469Y134466D01*
X247970Y133262D01*
X247800Y131969D01*
X247970Y130676D01*
X248469Y129471D01*
X249263Y128436D01*
X250297Y127642D01*
X251271Y127239D01*
Y126698D01*
X250297Y126295D01*
X249263Y125501D01*
X248469Y124466D01*
X247970Y123261D01*
X247800Y121969D01*
X247970Y120676D01*
X248469Y119471D01*
X249263Y118436D01*
X250297Y117642D01*
X251271Y117239D01*
Y116698D01*
X250297Y116295D01*
X249263Y115501D01*
X248469Y114466D01*
X247970Y113261D01*
X247800Y111969D01*
X247970Y110676D01*
X248469Y109471D01*
X249263Y108436D01*
X250297Y107642D01*
X251271Y107239D01*
Y106698D01*
X250297Y106295D01*
X249263Y105501D01*
X248469Y104466D01*
X247970Y103261D01*
X247800Y101969D01*
X247970Y100676D01*
X248469Y99471D01*
X249263Y98436D01*
X250297Y97642D01*
X251271Y97239D01*
Y96698D01*
X250297Y96295D01*
X249263Y95501D01*
X248469Y94466D01*
X247970Y93261D01*
X247800Y91969D01*
X247970Y90676D01*
X248469Y89471D01*
X249263Y88436D01*
X250297Y87642D01*
X251271Y87239D01*
Y86698D01*
X250297Y86295D01*
X249263Y85501D01*
X248469Y84466D01*
X248015Y83371D01*
X247508Y83171D01*
X236323Y94356D01*
X236328Y94420D01*
X237121Y95455D01*
X237620Y96660D01*
X237791Y97953D01*
X237620Y99246D01*
X237121Y100450D01*
X236328Y101485D01*
X235293Y102279D01*
X234320Y102682D01*
Y103223D01*
X235293Y103626D01*
X236328Y104420D01*
X237121Y105455D01*
X237620Y106660D01*
X237791Y107953D01*
X237620Y109246D01*
X237121Y110450D01*
X236328Y111485D01*
X235293Y112279D01*
X234320Y112682D01*
Y113223D01*
X235293Y113626D01*
X236328Y114420D01*
X237121Y115455D01*
X237620Y116660D01*
X237791Y117953D01*
X237620Y119246D01*
X237121Y120450D01*
X236328Y121485D01*
X235293Y122279D01*
X234320Y122682D01*
Y123223D01*
X235293Y123626D01*
X236328Y124420D01*
X237121Y125455D01*
X237620Y126660D01*
X237791Y127953D01*
X237620Y129245D01*
X237121Y130450D01*
X236328Y131485D01*
X235293Y132279D01*
X234320Y132682D01*
Y133223D01*
X235293Y133626D01*
X236328Y134420D01*
X237121Y135455D01*
X237620Y136660D01*
X237791Y137953D01*
X237620Y139245D01*
X237121Y140450D01*
X236328Y141485D01*
X235293Y142279D01*
X234320Y142682D01*
Y143223D01*
X235293Y143626D01*
X236328Y144420D01*
X237121Y145455D01*
X237620Y146660D01*
X237791Y147953D01*
X237620Y149246D01*
X237121Y150450D01*
X236328Y151485D01*
X235293Y152279D01*
X234088Y152778D01*
X232795Y152948D01*
X231502Y152778D01*
X230297Y152279D01*
X229263Y151485D01*
X228469Y150450D01*
X227970Y149246D01*
X227800Y147953D01*
X227970Y146660D01*
X228469Y145455D01*
X229263Y144420D01*
X230297Y143626D01*
X231271Y143223D01*
Y142682D01*
X230297Y142279D01*
X229263Y141485D01*
X228874Y140979D01*
X147480D01*
X147480Y140979D01*
X146697Y140875D01*
X145967Y140573D01*
X145341Y140092D01*
X145341Y140092D01*
X71225Y65976D01*
X65598D01*
Y56071D01*
X75504D01*
Y58960D01*
X76004Y59060D01*
X76225Y58526D01*
X77019Y57491D01*
X78053Y56697D01*
X79258Y56198D01*
X80551Y56028D01*
X81844Y56198D01*
X82110Y56308D01*
X82525Y56030D01*
Y37605D01*
X73760Y28840D01*
X73280Y28213D01*
X72977Y27483D01*
X72877Y26723D01*
X72856Y26621D01*
X72458Y26355D01*
X72159Y26479D01*
X70866Y26649D01*
X69573Y26479D01*
X68369Y25980D01*
X67334Y25186D01*
X66540Y24151D01*
X66041Y22946D01*
X65871Y21654D01*
X66041Y20361D01*
X66540Y19156D01*
X67334Y18121D01*
X67840Y17733D01*
Y9634D01*
X67943Y8851D01*
X68246Y8121D01*
X68727Y7494D01*
X72860Y3360D01*
X72860Y3360D01*
X73266Y3049D01*
X73097Y2549D01*
X2549D01*
Y213986D01*
X24535D01*
X52332Y186190D01*
X55284Y183237D01*
X55284Y183237D01*
X55284Y183237D01*
X55664Y182983D01*
X56111Y182685D01*
X56111Y182685D01*
X56111Y182684D01*
X56541Y182599D01*
X57086Y182490D01*
X57087Y182490D01*
X57087Y182490D01*
X208661D01*
X209637Y182684D01*
X210464Y183237D01*
X218338Y191111D01*
X241213Y213986D01*
X273042D01*
Y79245D01*
D02*
G37*
G36*
X247260Y74860D02*
X247260Y74860D01*
X247887Y74379D01*
X248353Y74186D01*
X247970Y73261D01*
X247800Y71969D01*
X247970Y70676D01*
X248067Y70442D01*
X247789Y70026D01*
X237801D01*
X237524Y70442D01*
X237620Y70676D01*
X237791Y71969D01*
X237620Y73261D01*
X237121Y74466D01*
X236328Y75501D01*
X235293Y76295D01*
X234759Y76516D01*
X234859Y77016D01*
X237748D01*
Y83719D01*
X238210Y83911D01*
X247260Y74860D01*
D02*
G37*
G36*
X229263Y134420D02*
X230297Y133626D01*
X231271Y133223D01*
Y132682D01*
X230297Y132279D01*
X229263Y131485D01*
X228469Y130450D01*
X227970Y129245D01*
X227800Y127953D01*
X227970Y126660D01*
X228469Y125455D01*
X229263Y124420D01*
X230297Y123626D01*
X231271Y123223D01*
Y122682D01*
X230297Y122279D01*
X229263Y121485D01*
X228469Y120450D01*
X227970Y119246D01*
X227800Y117953D01*
X227970Y116660D01*
X228469Y115455D01*
X229263Y114420D01*
X230297Y113626D01*
X231271Y113223D01*
Y112682D01*
X230297Y112279D01*
X229263Y111485D01*
X228469Y110450D01*
X227970Y109246D01*
X227800Y107953D01*
X227970Y106660D01*
X228469Y105455D01*
X229263Y104420D01*
X230297Y103626D01*
X231271Y103223D01*
Y102682D01*
X230297Y102279D01*
X229263Y101485D01*
X228469Y100450D01*
X227970Y99246D01*
X227800Y97953D01*
X227970Y96660D01*
X228469Y95455D01*
X229263Y94420D01*
X229769Y94032D01*
Y93605D01*
X229872Y92822D01*
X230175Y92092D01*
X230656Y91465D01*
X234737Y87383D01*
X234546Y86921D01*
X227842D01*
Y77016D01*
X230732D01*
X230831Y76516D01*
X230297Y76295D01*
X229263Y75501D01*
X228469Y74466D01*
X227970Y73261D01*
X227800Y71969D01*
X227970Y70676D01*
X228067Y70442D01*
X227789Y70026D01*
X171639D01*
X171400Y70526D01*
X171817Y71070D01*
X172170Y71921D01*
X172224Y72335D01*
X165295D01*
X165350Y71921D01*
X165703Y71070D01*
X166120Y70526D01*
X165881Y70026D01*
X85551D01*
X84768Y69923D01*
X84202Y69688D01*
X83919Y70112D01*
X148734Y134927D01*
X228874D01*
X229263Y134420D01*
D02*
G37*
G36*
X218436Y54285D02*
X218379Y54113D01*
X218177Y53837D01*
X217500Y53926D01*
X101928D01*
X100266Y55588D01*
X100487Y56037D01*
X100551Y56028D01*
X101844Y56198D01*
X103049Y56697D01*
X104084Y57491D01*
X104472Y57998D01*
X214723D01*
X218436Y54285D01*
D02*
G37*
G36*
X228093Y63558D02*
X227970Y63261D01*
X227800Y61969D01*
X227970Y60676D01*
X228469Y59471D01*
X229263Y58436D01*
X230297Y57642D01*
X231271Y57239D01*
Y56698D01*
X230297Y56295D01*
X229263Y55501D01*
X228469Y54466D01*
X228156Y53711D01*
X227666Y53614D01*
X218116Y63163D01*
X217711Y63474D01*
X217881Y63974D01*
X227815D01*
X228093Y63558D01*
D02*
G37*
G36*
X248093D02*
X247970Y63261D01*
X247800Y61969D01*
X247970Y60676D01*
X248469Y59471D01*
X249263Y58436D01*
X250297Y57642D01*
X251271Y57239D01*
Y56698D01*
X250297Y56295D01*
X249263Y55501D01*
X248469Y54466D01*
X247970Y53262D01*
X247800Y51969D01*
X247970Y50676D01*
X248469Y49471D01*
X249263Y48436D01*
X250297Y47642D01*
X251271Y47239D01*
Y46698D01*
X250297Y46295D01*
X249263Y45501D01*
X248469Y44466D01*
X247970Y43262D01*
X247823Y42148D01*
X247331Y41933D01*
X240124Y49140D01*
X239498Y49621D01*
X238768Y49923D01*
X237985Y50026D01*
X237801D01*
X237524Y50442D01*
X237620Y50676D01*
X237791Y51969D01*
X237620Y53262D01*
X237121Y54466D01*
X236328Y55501D01*
X235293Y56295D01*
X234320Y56698D01*
Y57239D01*
X235293Y57642D01*
X236328Y58436D01*
X237121Y59471D01*
X237620Y60676D01*
X237791Y61969D01*
X237620Y63261D01*
X237497Y63558D01*
X237775Y63974D01*
X247815D01*
X248093Y63558D01*
D02*
G37*
G36*
X89258Y56198D02*
X90551Y56028D01*
X91184Y56111D01*
X98535Y48760D01*
X99162Y48280D01*
X99892Y47977D01*
X100675Y47874D01*
X216247D01*
X223633Y40488D01*
X223442Y40026D01*
X218653D01*
X213740Y44940D01*
X213113Y45421D01*
X212383Y45723D01*
X211600Y45826D01*
X181750D01*
X181609Y46009D01*
X180669Y46731D01*
X179575Y47184D01*
X178400Y47339D01*
X177225Y47184D01*
X176131Y46731D01*
X175191Y46009D01*
X174469Y45069D01*
X174016Y43975D01*
X173861Y42800D01*
X174016Y41625D01*
X174469Y40531D01*
X175191Y39591D01*
X176131Y38869D01*
X177225Y38416D01*
X178400Y38261D01*
X179575Y38416D01*
X180669Y38869D01*
X181609Y39591D01*
X181750Y39774D01*
X210347D01*
X214664Y35456D01*
X214473Y34995D01*
X91181D01*
X90398Y34891D01*
X89668Y34589D01*
X89042Y34108D01*
X81540Y26606D01*
X80739D01*
X80548Y27068D01*
X87691Y34212D01*
X88172Y34838D01*
X88474Y35568D01*
X88525Y35960D01*
X88577Y36351D01*
X88577Y36351D01*
Y56030D01*
X88993Y56308D01*
X89258Y56198D01*
D02*
G37*
G36*
X247017Y34077D02*
X247728Y33984D01*
X248028Y33655D01*
X248093Y33558D01*
X247970Y33261D01*
X247800Y31969D01*
X247970Y30676D01*
X248067Y30442D01*
X247789Y30026D01*
X237801D01*
X237524Y30442D01*
X237620Y30676D01*
X237791Y31969D01*
X237620Y33261D01*
X237497Y33558D01*
X237775Y33974D01*
X238435D01*
X239116Y33085D01*
X240056Y32364D01*
X241151Y31911D01*
X242326Y31756D01*
X243501Y31911D01*
X244595Y32364D01*
X245535Y33085D01*
X246257Y34025D01*
X246386Y34338D01*
X247017Y34077D01*
D02*
G37*
G36*
X204302Y28481D02*
X198303Y22482D01*
X197829Y22716D01*
X197909Y23319D01*
X197739Y24612D01*
X197240Y25817D01*
X196446Y26851D01*
X195411Y27645D01*
X194206Y28144D01*
X192913Y28315D01*
X191621Y28144D01*
X190416Y27645D01*
X189381Y26851D01*
X188993Y26345D01*
X173212D01*
X172824Y26851D01*
X171789Y27645D01*
X170584Y28144D01*
X169291Y28315D01*
X167999Y28144D01*
X166794Y27645D01*
X165759Y26851D01*
X164965Y25817D01*
X164466Y24612D01*
X164296Y23319D01*
X164466Y22026D01*
X164584Y21742D01*
X164306Y21326D01*
X123393D01*
X123106Y21654D01*
X122935Y22946D01*
X122436Y24151D01*
X121642Y25186D01*
X120608Y25980D01*
X119403Y26479D01*
X118110Y26649D01*
X116817Y26479D01*
X115612Y25980D01*
X114578Y25186D01*
X113784Y24151D01*
X113563Y23618D01*
X113063Y23717D01*
Y26606D01*
X103157D01*
Y24679D01*
X90154D01*
X89370Y24576D01*
X88641Y24274D01*
X88014Y23793D01*
X88014Y23793D01*
X86694Y22474D01*
X86152Y22638D01*
X86148Y22656D01*
X92435Y28943D01*
X204110D01*
X204302Y28481D01*
D02*
G37*
G36*
X248093Y23558D02*
X247970Y23261D01*
X247800Y21969D01*
X247970Y20676D01*
X248067Y20442D01*
X247789Y20026D01*
X237801D01*
X237524Y20442D01*
X237620Y20676D01*
X237791Y21969D01*
X237620Y23261D01*
X237497Y23558D01*
X237775Y23974D01*
X247815D01*
X248093Y23558D01*
D02*
G37*
G36*
X228093D02*
X227970Y23261D01*
X227800Y21969D01*
X227970Y20676D01*
X228067Y20442D01*
X227789Y20026D01*
X218000D01*
X218000Y20026D01*
X217217Y19923D01*
X216487Y19621D01*
X215860Y19140D01*
X215860Y19140D01*
X205247Y8526D01*
X197866D01*
Y15274D01*
X198400D01*
X199183Y15377D01*
X199913Y15679D01*
X200540Y16160D01*
X208353Y23974D01*
X227815D01*
X228093Y23558D01*
D02*
G37*
G36*
X113784Y19156D02*
X114578Y18121D01*
X115612Y17327D01*
X116817Y16828D01*
X118110Y16658D01*
X118743Y16741D01*
X119324Y16160D01*
X119324Y16160D01*
X119951Y15679D01*
X120681Y15377D01*
X121464Y15274D01*
X121464Y15274D01*
X164339D01*
Y8526D01*
X81958D01*
X81767Y8988D01*
X91407Y18628D01*
X103157D01*
Y16701D01*
X113063D01*
Y19590D01*
X113563Y19690D01*
X113784Y19156D01*
D02*
G37*
G36*
X187961Y8526D02*
X174244D01*
Y15274D01*
X187961D01*
Y8526D01*
D02*
G37*
G36*
X273042Y20055D02*
Y2549D01*
X208403D01*
X208234Y3049D01*
X208640Y3360D01*
X219253Y13974D01*
X227815D01*
X228093Y13558D01*
X227970Y13262D01*
X227800Y11969D01*
X227970Y10676D01*
X228469Y9471D01*
X229263Y8436D01*
X230297Y7642D01*
X231502Y7143D01*
X232795Y6973D01*
X234088Y7143D01*
X235293Y7642D01*
X236328Y8436D01*
X237121Y9471D01*
X237620Y10676D01*
X237791Y11969D01*
X237620Y13262D01*
X237497Y13558D01*
X237775Y13974D01*
X247815D01*
X248093Y13558D01*
X247970Y13262D01*
X247800Y11969D01*
X247970Y10676D01*
X248469Y9471D01*
X249263Y8436D01*
X250297Y7642D01*
X251502Y7143D01*
X252795Y6973D01*
X254088Y7143D01*
X255293Y7642D01*
X256328Y8436D01*
X257121Y9471D01*
X257525Y10444D01*
X258066D01*
X258469Y9471D01*
X259263Y8436D01*
X260297Y7642D01*
X261502Y7143D01*
X262795Y6973D01*
X264088Y7143D01*
X265293Y7642D01*
X266328Y8436D01*
X267121Y9471D01*
X267620Y10676D01*
X267791Y11969D01*
X267620Y13262D01*
X267121Y14466D01*
X266938Y14706D01*
X267140Y14860D01*
X272542Y20262D01*
X273042Y20055D01*
D02*
G37*
%LPC*%
G36*
X22795Y196964D02*
X21502Y196794D01*
X20298Y196295D01*
X19263Y195501D01*
X18469Y194466D01*
X18248Y193933D01*
X17748Y194032D01*
Y196921D01*
X7842D01*
Y187016D01*
X10732D01*
X10831Y186516D01*
X10298Y186295D01*
X9263Y185501D01*
X8469Y184466D01*
X7970Y183262D01*
X7800Y181969D01*
X7970Y180676D01*
X8469Y179471D01*
X9263Y178436D01*
X10298Y177642D01*
X11271Y177239D01*
Y176698D01*
X10298Y176295D01*
X9263Y175501D01*
X8469Y174466D01*
X7970Y173261D01*
X7800Y171969D01*
X7970Y170676D01*
X8469Y169471D01*
X9263Y168436D01*
X10298Y167642D01*
X11271Y167239D01*
Y166698D01*
X10298Y166295D01*
X9263Y165501D01*
X8469Y164466D01*
X7970Y163261D01*
X7800Y161969D01*
X7970Y160676D01*
X8469Y159471D01*
X9263Y158436D01*
X10298Y157642D01*
X11271Y157239D01*
Y156698D01*
X10298Y156295D01*
X9263Y155501D01*
X8469Y154466D01*
X7970Y153261D01*
X7800Y151969D01*
X7970Y150676D01*
X8469Y149471D01*
X9263Y148436D01*
X10298Y147642D01*
X11271Y147239D01*
Y146698D01*
X10298Y146295D01*
X9263Y145501D01*
X8469Y144466D01*
X7970Y143262D01*
X7800Y141969D01*
X7970Y140676D01*
X8469Y139471D01*
X9263Y138436D01*
X10298Y137642D01*
X11271Y137239D01*
Y136698D01*
X10298Y136295D01*
X9263Y135501D01*
X8469Y134466D01*
X7970Y133262D01*
X7800Y131969D01*
X7970Y130676D01*
X8469Y129471D01*
X9263Y128436D01*
X10298Y127642D01*
X11271Y127239D01*
Y126698D01*
X10298Y126295D01*
X9263Y125501D01*
X8469Y124466D01*
X7970Y123261D01*
X7800Y121969D01*
X7970Y120676D01*
X8469Y119471D01*
X9263Y118436D01*
X10298Y117642D01*
X11271Y117239D01*
Y116698D01*
X10298Y116295D01*
X9263Y115501D01*
X8469Y114466D01*
X7970Y113261D01*
X7800Y111969D01*
X7970Y110676D01*
X8469Y109471D01*
X9263Y108436D01*
X10298Y107642D01*
X11502Y107143D01*
X12795Y106973D01*
X14088Y107143D01*
X15293Y107642D01*
X16328Y108436D01*
X17121Y109471D01*
X17525Y110444D01*
X18066D01*
X18469Y109471D01*
X19263Y108436D01*
X20298Y107642D01*
X21502Y107143D01*
X22795Y106973D01*
X24088Y107143D01*
X25293Y107642D01*
X26327Y108436D01*
X27121Y109471D01*
X27621Y110676D01*
X27791Y111969D01*
X27621Y113261D01*
X27121Y114466D01*
X26327Y115501D01*
X25293Y116295D01*
X24320Y116698D01*
Y117239D01*
X25293Y117642D01*
X26327Y118436D01*
X27121Y119471D01*
X27621Y120676D01*
X27791Y121969D01*
X27621Y123261D01*
X27121Y124466D01*
X26327Y125501D01*
X25293Y126295D01*
X24320Y126698D01*
Y127239D01*
X25293Y127642D01*
X26327Y128436D01*
X27121Y129471D01*
X27621Y130676D01*
X27791Y131969D01*
X27621Y133262D01*
X27121Y134466D01*
X26327Y135501D01*
X25293Y136295D01*
X24320Y136698D01*
Y137239D01*
X25293Y137642D01*
X26327Y138436D01*
X27121Y139471D01*
X27621Y140676D01*
X27791Y141969D01*
X27621Y143262D01*
X27121Y144466D01*
X26327Y145501D01*
X25293Y146295D01*
X24320Y146698D01*
Y147239D01*
X25293Y147642D01*
X26327Y148436D01*
X27121Y149471D01*
X27621Y150676D01*
X27791Y151969D01*
X27621Y153261D01*
X27121Y154466D01*
X26327Y155501D01*
X25293Y156295D01*
X24088Y156794D01*
X22795Y156964D01*
X21502Y156794D01*
X20298Y156295D01*
X19263Y155501D01*
X18469Y154466D01*
X18066Y153493D01*
X17525D01*
X17121Y154466D01*
X16328Y155501D01*
X15293Y156295D01*
X14320Y156698D01*
Y157239D01*
X15293Y157642D01*
X16328Y158436D01*
X17121Y159471D01*
X17620Y160676D01*
X17791Y161969D01*
X17620Y163261D01*
X17121Y164466D01*
X16328Y165501D01*
X15293Y166295D01*
X14320Y166698D01*
Y167239D01*
X15293Y167642D01*
X16328Y168436D01*
X17121Y169471D01*
X17525Y170444D01*
X18066D01*
X18469Y169471D01*
X19263Y168436D01*
X20298Y167642D01*
X21502Y167143D01*
X22795Y166973D01*
X24088Y167143D01*
X25293Y167642D01*
X26327Y168436D01*
X27121Y169471D01*
X27621Y170676D01*
X27791Y171969D01*
X27621Y173261D01*
X27121Y174466D01*
X26327Y175501D01*
X25293Y176295D01*
X24320Y176698D01*
Y177239D01*
X25293Y177642D01*
X26327Y178436D01*
X27121Y179471D01*
X27621Y180676D01*
X27791Y181969D01*
X27621Y183262D01*
X27121Y184466D01*
X26327Y185501D01*
X25293Y186295D01*
X24320Y186698D01*
Y187239D01*
X25293Y187642D01*
X26327Y188436D01*
X27121Y189471D01*
X27621Y190676D01*
X27791Y191969D01*
X27621Y193262D01*
X27121Y194466D01*
X26327Y195501D01*
X25293Y196295D01*
X24088Y196794D01*
X22795Y196964D01*
D02*
G37*
G36*
X165854Y171244D02*
Y167823D01*
X169275D01*
X169205Y168355D01*
X168807Y169316D01*
X168174Y170142D01*
X167348Y170775D01*
X166386Y171174D01*
X165854Y171244D01*
D02*
G37*
G36*
X164854D02*
X164322Y171174D01*
X163361Y170775D01*
X162535Y170142D01*
X161902Y169316D01*
X161503Y168355D01*
X161433Y167823D01*
X164854D01*
Y171244D01*
D02*
G37*
G36*
X197350Y171165D02*
Y167744D01*
X200771D01*
X200701Y168276D01*
X200303Y169238D01*
X199670Y170063D01*
X198844Y170697D01*
X197882Y171095D01*
X197350Y171165D01*
D02*
G37*
G36*
X196350D02*
X195818Y171095D01*
X194857Y170697D01*
X194031Y170063D01*
X193398Y169238D01*
X192999Y168276D01*
X192929Y167744D01*
X196350D01*
Y171165D01*
D02*
G37*
G36*
X169275Y166823D02*
X165854D01*
Y163402D01*
X166386Y163472D01*
X167348Y163870D01*
X168174Y164504D01*
X168807Y165329D01*
X169205Y166291D01*
X169275Y166823D01*
D02*
G37*
G36*
X164854D02*
X161433D01*
X161503Y166291D01*
X161902Y165329D01*
X162535Y164504D01*
X163361Y163870D01*
X164322Y163472D01*
X164854Y163402D01*
Y166823D01*
D02*
G37*
G36*
X200771Y166744D02*
X197350D01*
Y163323D01*
X197882Y163393D01*
X198844Y163792D01*
X199670Y164425D01*
X200303Y165251D01*
X200701Y166212D01*
X200771Y166744D01*
D02*
G37*
G36*
X196350D02*
X192929D01*
X192999Y166212D01*
X193398Y165251D01*
X194031Y164425D01*
X194857Y163792D01*
X195818Y163393D01*
X196350Y163323D01*
Y166744D01*
D02*
G37*
G36*
X237748Y192905D02*
X227842D01*
Y183000D01*
X230732D01*
X230831Y182500D01*
X230297Y182279D01*
X229263Y181485D01*
X228469Y180450D01*
X227970Y179245D01*
X227800Y177953D01*
X227970Y176660D01*
X228469Y175455D01*
X229263Y174420D01*
X230297Y173626D01*
X231271Y173223D01*
Y172682D01*
X230297Y172279D01*
X229263Y171485D01*
X228469Y170450D01*
X227970Y169246D01*
X227800Y167953D01*
X227970Y166660D01*
X228469Y165455D01*
X229263Y164420D01*
X230297Y163626D01*
X231502Y163127D01*
X232795Y162957D01*
X234088Y163127D01*
X235293Y163626D01*
X236328Y164420D01*
X237121Y165455D01*
X237620Y166660D01*
X237791Y167953D01*
X237620Y169246D01*
X237121Y170450D01*
X236328Y171485D01*
X235293Y172279D01*
X234320Y172682D01*
Y173223D01*
X235293Y173626D01*
X236328Y174420D01*
X237121Y175455D01*
X237620Y176660D01*
X237791Y177953D01*
X237620Y179245D01*
X237121Y180450D01*
X236328Y181485D01*
X235293Y182279D01*
X234759Y182500D01*
X234859Y183000D01*
X237748D01*
Y192905D01*
D02*
G37*
G36*
X23295Y165890D02*
Y162469D01*
X26716D01*
X26646Y163001D01*
X26248Y163962D01*
X25614Y164788D01*
X24789Y165421D01*
X23827Y165820D01*
X23295Y165890D01*
D02*
G37*
G36*
X22295D02*
X21763Y165820D01*
X20802Y165421D01*
X19976Y164788D01*
X19342Y163962D01*
X18944Y163001D01*
X18874Y162469D01*
X22295D01*
Y165890D01*
D02*
G37*
G36*
X233295Y161874D02*
Y158453D01*
X236716D01*
X236646Y158984D01*
X236248Y159946D01*
X235614Y160772D01*
X234789Y161405D01*
X233827Y161804D01*
X233295Y161874D01*
D02*
G37*
G36*
X232295D02*
X231763Y161804D01*
X230802Y161405D01*
X229976Y160772D01*
X229343Y159946D01*
X228944Y158984D01*
X228874Y158453D01*
X232295D01*
Y161874D01*
D02*
G37*
G36*
X26716Y161469D02*
X23295D01*
Y158048D01*
X23827Y158118D01*
X24789Y158516D01*
X25614Y159150D01*
X26248Y159975D01*
X26646Y160937D01*
X26716Y161469D01*
D02*
G37*
G36*
X22295D02*
X18874D01*
X18944Y160937D01*
X19342Y159975D01*
X19976Y159150D01*
X20802Y158516D01*
X21763Y158118D01*
X22295Y158048D01*
Y161469D01*
D02*
G37*
G36*
X236716Y157453D02*
X233295D01*
Y154032D01*
X233827Y154102D01*
X234789Y154500D01*
X235614Y155133D01*
X236248Y155959D01*
X236646Y156921D01*
X236716Y157453D01*
D02*
G37*
G36*
X232295D02*
X228874D01*
X228944Y156921D01*
X229343Y155959D01*
X229976Y155133D01*
X230802Y154500D01*
X231763Y154102D01*
X232295Y154032D01*
Y157453D01*
D02*
G37*
G36*
X253295Y155890D02*
Y152469D01*
X256716D01*
X256646Y153000D01*
X256248Y153962D01*
X255614Y154788D01*
X254789Y155421D01*
X253827Y155820D01*
X253295Y155890D01*
D02*
G37*
G36*
X252295D02*
X251763Y155820D01*
X250802Y155421D01*
X249976Y154788D01*
X249342Y153962D01*
X248944Y153000D01*
X248874Y152469D01*
X252295D01*
Y155890D01*
D02*
G37*
G36*
X256716Y151469D02*
X253295D01*
Y148048D01*
X253827Y148118D01*
X254789Y148516D01*
X255614Y149150D01*
X256248Y149975D01*
X256646Y150937D01*
X256716Y151469D01*
D02*
G37*
G36*
X252295D02*
X248874D01*
X248944Y150937D01*
X249342Y149975D01*
X249976Y149150D01*
X250802Y148516D01*
X251763Y148118D01*
X252295Y148048D01*
Y151469D01*
D02*
G37*
G36*
X170307Y162276D02*
X160402D01*
Y160349D01*
X78149D01*
X77366Y160246D01*
X76636Y159943D01*
X76010Y159462D01*
X48231Y131683D01*
X47782Y131904D01*
X47791Y131969D01*
X47620Y133262D01*
X47121Y134466D01*
X46327Y135501D01*
X45293Y136295D01*
X44320Y136698D01*
Y137239D01*
X45293Y137642D01*
X46327Y138436D01*
X47121Y139471D01*
X47620Y140676D01*
X47791Y141969D01*
X47620Y143262D01*
X47121Y144466D01*
X46327Y145501D01*
X45293Y146295D01*
X44759Y146516D01*
X44859Y147016D01*
X47748D01*
Y156921D01*
X37843D01*
Y147016D01*
X40732D01*
X40831Y146516D01*
X40297Y146295D01*
X39263Y145501D01*
X38469Y144466D01*
X37970Y143262D01*
X37800Y141969D01*
X37970Y140676D01*
X38469Y139471D01*
X39263Y138436D01*
X40297Y137642D01*
X41271Y137239D01*
Y136698D01*
X40297Y136295D01*
X39263Y135501D01*
X38469Y134466D01*
X37970Y133262D01*
X37800Y131969D01*
X37970Y130676D01*
X38469Y129471D01*
X39263Y128436D01*
X40297Y127642D01*
X41271Y127239D01*
Y126698D01*
X40297Y126295D01*
X39263Y125501D01*
X38469Y124466D01*
X37970Y123261D01*
X37800Y121969D01*
X37970Y120676D01*
X38469Y119471D01*
X39263Y118436D01*
X40297Y117642D01*
X41271Y117239D01*
Y116698D01*
X40297Y116295D01*
X39263Y115501D01*
X38469Y114466D01*
X37970Y113261D01*
X37800Y111969D01*
X37970Y110676D01*
X38469Y109471D01*
X39263Y108436D01*
X40297Y107642D01*
X41502Y107143D01*
X42795Y106973D01*
X44088Y107143D01*
X45293Y107642D01*
X46327Y108436D01*
X47121Y109471D01*
X47620Y110676D01*
X47791Y111969D01*
X47707Y112601D01*
X82980Y147874D01*
X150193D01*
X150334Y147691D01*
X151274Y146969D01*
X152369Y146516D01*
X153543Y146361D01*
X154718Y146516D01*
X155813Y146969D01*
X156753Y147691D01*
X156894Y147874D01*
X190506D01*
X191289Y147977D01*
X192019Y148280D01*
X192646Y148760D01*
X196177Y152292D01*
X201803D01*
Y162197D01*
X191898D01*
Y156571D01*
X189253Y153926D01*
X170307D01*
Y162276D01*
D02*
G37*
G36*
X263295Y105890D02*
Y102469D01*
X266716D01*
X266646Y103000D01*
X266248Y103962D01*
X265614Y104788D01*
X264789Y105421D01*
X263827Y105820D01*
X263295Y105890D01*
D02*
G37*
G36*
X43295D02*
Y102469D01*
X46716D01*
X46646Y103000D01*
X46248Y103962D01*
X45614Y104788D01*
X44789Y105421D01*
X43827Y105820D01*
X43295Y105890D01*
D02*
G37*
G36*
X23295D02*
Y102469D01*
X26716D01*
X26646Y103000D01*
X26248Y103962D01*
X25614Y104788D01*
X24789Y105421D01*
X23827Y105820D01*
X23295Y105890D01*
D02*
G37*
G36*
X13295D02*
Y102469D01*
X16716D01*
X16646Y103000D01*
X16248Y103962D01*
X15614Y104788D01*
X14789Y105421D01*
X13827Y105820D01*
X13295Y105890D01*
D02*
G37*
G36*
X262295D02*
X261763Y105820D01*
X260802Y105421D01*
X259976Y104788D01*
X259343Y103962D01*
X258944Y103000D01*
X258874Y102469D01*
X262295D01*
Y105890D01*
D02*
G37*
G36*
X42295D02*
X41763Y105820D01*
X40802Y105421D01*
X39976Y104788D01*
X39342Y103962D01*
X38944Y103000D01*
X38874Y102469D01*
X42295D01*
Y105890D01*
D02*
G37*
G36*
X22295D02*
X21763Y105820D01*
X20802Y105421D01*
X19976Y104788D01*
X19342Y103962D01*
X18944Y103000D01*
X18874Y102469D01*
X22295D01*
Y105890D01*
D02*
G37*
G36*
X12295D02*
X11763Y105820D01*
X10802Y105421D01*
X9976Y104788D01*
X9342Y103962D01*
X8944Y103000D01*
X8874Y102469D01*
X12295D01*
Y105890D01*
D02*
G37*
G36*
X266716Y101469D02*
X263295D01*
Y98048D01*
X263827Y98118D01*
X264789Y98516D01*
X265614Y99150D01*
X266248Y99975D01*
X266646Y100937D01*
X266716Y101469D01*
D02*
G37*
G36*
X46716D02*
X43295D01*
Y98048D01*
X43827Y98118D01*
X44789Y98516D01*
X45614Y99150D01*
X46248Y99975D01*
X46646Y100937D01*
X46716Y101469D01*
D02*
G37*
G36*
X26716D02*
X23295D01*
Y98048D01*
X23827Y98118D01*
X24789Y98516D01*
X25614Y99150D01*
X26248Y99975D01*
X26646Y100937D01*
X26716Y101469D01*
D02*
G37*
G36*
X16716D02*
X13295D01*
Y98048D01*
X13827Y98118D01*
X14789Y98516D01*
X15614Y99150D01*
X16248Y99975D01*
X16646Y100937D01*
X16716Y101469D01*
D02*
G37*
G36*
X262295D02*
X258874D01*
X258944Y100937D01*
X259343Y99975D01*
X259976Y99150D01*
X260802Y98516D01*
X261763Y98118D01*
X262295Y98048D01*
Y101469D01*
D02*
G37*
G36*
X42295D02*
X38874D01*
X38944Y100937D01*
X39342Y99975D01*
X39976Y99150D01*
X40802Y98516D01*
X41763Y98118D01*
X42295Y98048D01*
Y101469D01*
D02*
G37*
G36*
X22295D02*
X18874D01*
X18944Y100937D01*
X19342Y99975D01*
X19976Y99150D01*
X20802Y98516D01*
X21763Y98118D01*
X22295Y98048D01*
Y101469D01*
D02*
G37*
G36*
X12295D02*
X8874D01*
X8944Y100937D01*
X9342Y99975D01*
X9976Y99150D01*
X10802Y98516D01*
X11763Y98118D01*
X12295Y98048D01*
Y101469D01*
D02*
G37*
G36*
X43295Y95890D02*
Y92469D01*
X46716D01*
X46646Y93001D01*
X46248Y93962D01*
X45614Y94788D01*
X44789Y95421D01*
X43827Y95820D01*
X43295Y95890D01*
D02*
G37*
G36*
X23295D02*
Y92469D01*
X26716D01*
X26646Y93001D01*
X26248Y93962D01*
X25614Y94788D01*
X24789Y95421D01*
X23827Y95820D01*
X23295Y95890D01*
D02*
G37*
G36*
X42295D02*
X41763Y95820D01*
X40802Y95421D01*
X39976Y94788D01*
X39342Y93962D01*
X38944Y93001D01*
X38874Y92469D01*
X42295D01*
Y95890D01*
D02*
G37*
G36*
X22295D02*
X21763Y95820D01*
X20802Y95421D01*
X19976Y94788D01*
X19342Y93962D01*
X18944Y93001D01*
X18874Y92469D01*
X22295D01*
Y95890D01*
D02*
G37*
G36*
X46716Y91469D02*
X43295D01*
Y88048D01*
X43827Y88118D01*
X44789Y88516D01*
X45614Y89149D01*
X46248Y89975D01*
X46646Y90937D01*
X46716Y91469D01*
D02*
G37*
G36*
X26716D02*
X23295D01*
Y88048D01*
X23827Y88118D01*
X24789Y88516D01*
X25614Y89149D01*
X26248Y89975D01*
X26646Y90937D01*
X26716Y91469D01*
D02*
G37*
G36*
X42295D02*
X38874D01*
X38944Y90937D01*
X39342Y89975D01*
X39976Y89149D01*
X40802Y88516D01*
X41763Y88118D01*
X42295Y88048D01*
Y91469D01*
D02*
G37*
G36*
X22295D02*
X18874D01*
X18944Y90937D01*
X19342Y89975D01*
X19976Y89149D01*
X20802Y88516D01*
X21763Y88118D01*
X22295Y88048D01*
Y91469D01*
D02*
G37*
G36*
X54000Y112839D02*
X52825Y112684D01*
X51731Y112231D01*
X50791Y111509D01*
X50069Y110569D01*
X49616Y109475D01*
X49461Y108300D01*
X49494Y108053D01*
X49079Y107513D01*
X48777Y106783D01*
X48674Y106000D01*
Y84953D01*
X47752Y84031D01*
X47261Y84128D01*
X47121Y84466D01*
X46327Y85501D01*
X45293Y86295D01*
X44088Y86794D01*
X42795Y86964D01*
X41502Y86794D01*
X40297Y86295D01*
X39263Y85501D01*
X38469Y84466D01*
X37970Y83262D01*
X37800Y81969D01*
X37970Y80676D01*
X38067Y80442D01*
X37789Y80026D01*
X27801D01*
X27523Y80442D01*
X27621Y80676D01*
X27791Y81969D01*
X27621Y83262D01*
X27121Y84466D01*
X26327Y85501D01*
X25293Y86295D01*
X24088Y86794D01*
X22795Y86964D01*
X21502Y86794D01*
X20298Y86295D01*
X19263Y85501D01*
X18469Y84466D01*
X18066Y83493D01*
X17525D01*
X17121Y84466D01*
X16328Y85501D01*
X15293Y86295D01*
X14320Y86698D01*
Y87239D01*
X15293Y87642D01*
X16328Y88436D01*
X17121Y89471D01*
X17620Y90676D01*
X17791Y91969D01*
X17620Y93261D01*
X17121Y94466D01*
X16328Y95501D01*
X15293Y96295D01*
X14088Y96794D01*
X12795Y96964D01*
X11502Y96794D01*
X10298Y96295D01*
X9263Y95501D01*
X8469Y94466D01*
X7970Y93261D01*
X7800Y91969D01*
X7970Y90676D01*
X8469Y89471D01*
X9263Y88436D01*
X10298Y87642D01*
X11271Y87239D01*
Y86698D01*
X10298Y86295D01*
X9263Y85501D01*
X8469Y84466D01*
X7970Y83262D01*
X7800Y81969D01*
X7970Y80676D01*
X8469Y79471D01*
X9263Y78436D01*
X10298Y77642D01*
X11271Y77239D01*
Y76698D01*
X10298Y76295D01*
X9263Y75501D01*
X8469Y74466D01*
X7970Y73261D01*
X7800Y71969D01*
X7970Y70676D01*
X8469Y69471D01*
X9263Y68436D01*
X10298Y67642D01*
X11271Y67239D01*
Y66698D01*
X10298Y66295D01*
X9263Y65501D01*
X8469Y64466D01*
X7970Y63261D01*
X7800Y61969D01*
X7970Y60676D01*
X8469Y59471D01*
X9263Y58436D01*
X10298Y57642D01*
X11271Y57239D01*
Y56698D01*
X10298Y56295D01*
X9263Y55501D01*
X8469Y54466D01*
X7970Y53262D01*
X7800Y51969D01*
X7970Y50676D01*
X8469Y49471D01*
X9263Y48436D01*
X10298Y47642D01*
X11271Y47239D01*
Y46698D01*
X10298Y46295D01*
X9263Y45501D01*
X8469Y44466D01*
X7970Y43262D01*
X7800Y41969D01*
X7970Y40676D01*
X8469Y39471D01*
X9263Y38436D01*
X10298Y37642D01*
X11271Y37239D01*
Y36698D01*
X10298Y36295D01*
X9263Y35501D01*
X8469Y34466D01*
X7970Y33261D01*
X7800Y31969D01*
X7970Y30676D01*
X8469Y29471D01*
X9263Y28436D01*
X10298Y27642D01*
X11271Y27239D01*
Y26698D01*
X10298Y26295D01*
X9263Y25501D01*
X8469Y24466D01*
X7970Y23261D01*
X7800Y21969D01*
X7970Y20676D01*
X8469Y19471D01*
X9263Y18436D01*
X10298Y17642D01*
X11271Y17239D01*
Y16698D01*
X10298Y16295D01*
X9263Y15501D01*
X8469Y14466D01*
X7970Y13262D01*
X7800Y11969D01*
X7970Y10676D01*
X8469Y9471D01*
X9263Y8436D01*
X10298Y7642D01*
X11502Y7143D01*
X12795Y6973D01*
X14088Y7143D01*
X15293Y7642D01*
X16328Y8436D01*
X17121Y9471D01*
X17525Y10444D01*
X18066D01*
X18469Y9471D01*
X19263Y8436D01*
X20298Y7642D01*
X21502Y7143D01*
X22795Y6973D01*
X24088Y7143D01*
X25293Y7642D01*
X26327Y8436D01*
X27121Y9471D01*
X27621Y10676D01*
X27791Y11969D01*
X27621Y13262D01*
X27121Y14466D01*
X26327Y15501D01*
X25293Y16295D01*
X24320Y16698D01*
Y17239D01*
X25293Y17642D01*
X26327Y18436D01*
X27121Y19471D01*
X27621Y20676D01*
X27791Y21969D01*
X27621Y23261D01*
X27121Y24466D01*
X26327Y25501D01*
X25293Y26295D01*
X24320Y26698D01*
Y27239D01*
X25293Y27642D01*
X26327Y28436D01*
X27121Y29471D01*
X27621Y30676D01*
X27791Y31969D01*
X27621Y33261D01*
X27121Y34466D01*
X26327Y35501D01*
X25293Y36295D01*
X24320Y36698D01*
Y37239D01*
X25293Y37642D01*
X26327Y38436D01*
X27121Y39471D01*
X27621Y40676D01*
X27791Y41969D01*
X27621Y43262D01*
X27121Y44466D01*
X26327Y45501D01*
X25293Y46295D01*
X24320Y46698D01*
Y47239D01*
X25293Y47642D01*
X26327Y48436D01*
X27121Y49471D01*
X27621Y50676D01*
X27791Y51969D01*
X27621Y53262D01*
X27121Y54466D01*
X26327Y55501D01*
X25293Y56295D01*
X24320Y56698D01*
Y57239D01*
X25293Y57642D01*
X26327Y58436D01*
X27121Y59471D01*
X27621Y60676D01*
X27791Y61969D01*
X27621Y63261D01*
X27121Y64466D01*
X26327Y65501D01*
X25293Y66295D01*
X24320Y66698D01*
Y67239D01*
X25293Y67642D01*
X26327Y68436D01*
X27121Y69471D01*
X27621Y70676D01*
X27791Y71969D01*
X27621Y73261D01*
X27498Y73558D01*
X27775Y73974D01*
X45000D01*
X45783Y74077D01*
X46513Y74379D01*
X47140Y74860D01*
X53840Y81560D01*
X54321Y82187D01*
X54623Y82917D01*
X54726Y83700D01*
Y103857D01*
X55175Y103916D01*
X56269Y104369D01*
X57209Y105091D01*
X57931Y106031D01*
X58384Y107125D01*
X58539Y108300D01*
X58384Y109475D01*
X57931Y110569D01*
X57209Y111509D01*
X56269Y112231D01*
X55175Y112684D01*
X54000Y112839D01*
D02*
G37*
G36*
X47748Y66921D02*
X37843D01*
Y57016D01*
X40732D01*
X40831Y56516D01*
X40297Y56295D01*
X39263Y55501D01*
X38469Y54466D01*
X37970Y53262D01*
X37800Y51969D01*
X37970Y50676D01*
X38469Y49471D01*
X39263Y48436D01*
X40297Y47642D01*
X41271Y47239D01*
Y46698D01*
X40297Y46295D01*
X39263Y45501D01*
X38469Y44466D01*
X37970Y43262D01*
X37800Y41969D01*
X37970Y40676D01*
X38469Y39471D01*
X39263Y38436D01*
X40297Y37642D01*
X41271Y37239D01*
Y36698D01*
X40297Y36295D01*
X39263Y35501D01*
X38469Y34466D01*
X37970Y33261D01*
X37800Y31969D01*
X37970Y30676D01*
X38469Y29471D01*
X39263Y28436D01*
X40297Y27642D01*
X41271Y27239D01*
Y26698D01*
X40297Y26295D01*
X39263Y25501D01*
X38469Y24466D01*
X37970Y23261D01*
X37800Y21969D01*
X37970Y20676D01*
X38469Y19471D01*
X39263Y18436D01*
X40297Y17642D01*
X41271Y17239D01*
Y16698D01*
X40297Y16295D01*
X39263Y15501D01*
X38469Y14466D01*
X37970Y13262D01*
X37800Y11969D01*
X37970Y10676D01*
X38469Y9471D01*
X39263Y8436D01*
X40297Y7642D01*
X41502Y7143D01*
X42795Y6973D01*
X44088Y7143D01*
X45293Y7642D01*
X46327Y8436D01*
X47121Y9471D01*
X47620Y10676D01*
X47791Y11969D01*
X47620Y13262D01*
X47121Y14466D01*
X46327Y15501D01*
X45293Y16295D01*
X44320Y16698D01*
Y17239D01*
X45293Y17642D01*
X46327Y18436D01*
X47121Y19471D01*
X47620Y20676D01*
X47791Y21969D01*
X47620Y23261D01*
X47121Y24466D01*
X46327Y25501D01*
X45293Y26295D01*
X44320Y26698D01*
Y27239D01*
X45293Y27642D01*
X46327Y28436D01*
X47121Y29471D01*
X47620Y30676D01*
X47791Y31969D01*
X47620Y33261D01*
X47121Y34466D01*
X46327Y35501D01*
X45293Y36295D01*
X44320Y36698D01*
Y37239D01*
X45293Y37642D01*
X46327Y38436D01*
X47121Y39471D01*
X47620Y40676D01*
X47791Y41969D01*
X47620Y43262D01*
X47121Y44466D01*
X46327Y45501D01*
X45293Y46295D01*
X44320Y46698D01*
Y47239D01*
X45293Y47642D01*
X46327Y48436D01*
X47121Y49471D01*
X47620Y50676D01*
X47791Y51969D01*
X47620Y53262D01*
X47121Y54466D01*
X46327Y55501D01*
X45293Y56295D01*
X44759Y56516D01*
X44859Y57016D01*
X47748D01*
Y66921D01*
D02*
G37*
%LPD*%
G36*
X80943Y153823D02*
X80214Y153521D01*
X79587Y153040D01*
X79587Y153040D01*
X48231Y121683D01*
X47782Y121905D01*
X47791Y121969D01*
X47707Y122601D01*
X79403Y154297D01*
X80841D01*
X80943Y153823D01*
D02*
G37*
%LPC*%
G36*
X161417Y96964D02*
X160124Y96794D01*
X158920Y96295D01*
X157885Y95501D01*
X157091Y94466D01*
X156870Y93933D01*
X156370Y94032D01*
Y96921D01*
X146465D01*
Y87016D01*
X156370D01*
Y89905D01*
X156870Y90004D01*
X157091Y89471D01*
X157885Y88436D01*
X158920Y87642D01*
X160124Y87143D01*
X161417Y86973D01*
X162710Y87143D01*
X163915Y87642D01*
X164950Y88436D01*
X165743Y89471D01*
X166243Y90676D01*
X166413Y91969D01*
X166243Y93261D01*
X165743Y94466D01*
X164950Y95501D01*
X163915Y96295D01*
X162710Y96794D01*
X161417Y96964D01*
D02*
G37*
G36*
X138295Y90480D02*
Y87516D01*
X141260D01*
X141205Y87929D01*
X140852Y88781D01*
X140292Y89512D01*
X139560Y90073D01*
X138709Y90426D01*
X138295Y90480D01*
D02*
G37*
G36*
X137295D02*
X136882Y90426D01*
X136030Y90073D01*
X135299Y89512D01*
X134738Y88781D01*
X134385Y87929D01*
X134331Y87516D01*
X137295D01*
Y90480D01*
D02*
G37*
G36*
X141260Y86516D02*
X138295D01*
Y83552D01*
X138709Y83606D01*
X139560Y83959D01*
X140292Y84520D01*
X140852Y85251D01*
X141205Y86102D01*
X141260Y86516D01*
D02*
G37*
G36*
X137295D02*
X134331D01*
X134385Y86102D01*
X134738Y85251D01*
X135299Y84520D01*
X136030Y83959D01*
X136882Y83606D01*
X137295Y83552D01*
Y86516D01*
D02*
G37*
G36*
X169260Y76299D02*
Y73335D01*
X172224D01*
X172170Y73748D01*
X171817Y74600D01*
X171256Y75331D01*
X170525Y75892D01*
X169674Y76245D01*
X169260Y76299D01*
D02*
G37*
G36*
X168260D02*
X167846Y76245D01*
X166995Y75892D01*
X166264Y75331D01*
X165703Y74600D01*
X165350Y73748D01*
X165295Y73335D01*
X168260D01*
Y76299D01*
D02*
G37*
%LPD*%
D26*
X241621Y37000D02*
X242326Y36295D01*
X217400Y37000D02*
X241621D01*
X247800D02*
X257764D01*
X246826Y37974D02*
X247800Y37000D01*
X257764D02*
X262795Y31969D01*
X230000Y47000D02*
X237985D01*
X246826Y38159D01*
Y37974D02*
Y38159D01*
X153543Y150900D02*
X190506D01*
X81727D02*
X153543D01*
X259100Y65600D02*
X262795D01*
X190506Y150900D02*
X196850Y157244D01*
X42795Y111969D02*
X81727Y150900D01*
X78149Y157323D02*
X165354D01*
X42795Y121969D02*
X78149Y157323D01*
X51700Y106000D02*
X54000Y108300D01*
X51700Y83700D02*
Y106000D01*
X45000Y77000D02*
X51700Y83700D01*
X17800Y77000D02*
X45000D01*
X17800Y26973D02*
Y77000D01*
X12795Y21969D02*
X17800Y26973D01*
X226431Y41969D02*
X232795D01*
X217500Y50900D02*
X226431Y41969D01*
X100675Y50900D02*
X217500D01*
X90551Y61024D02*
X100675Y50900D01*
X178400Y42800D02*
X211600D01*
X217400Y37000D01*
X70866Y9634D02*
Y21654D01*
Y9634D02*
X75000Y5500D01*
X206500D01*
X218000Y17000D01*
X265000D01*
X270800Y22800D01*
Y76500D01*
X270300Y77000D02*
X270800Y76500D01*
X249400Y77000D02*
X270300D01*
X232795Y93605D02*
X249400Y77000D01*
X232795Y93605D02*
Y97953D01*
X147480Y137953D02*
X232795D01*
X70551Y61024D02*
X147480Y137953D01*
X262795Y61969D02*
Y65600D01*
X257700Y67000D02*
X259100Y65600D01*
X85551Y67000D02*
X257700D01*
X85551Y36351D02*
Y67000D01*
X75900Y26700D02*
X85551Y36351D01*
X75900Y11800D02*
Y26700D01*
Y11800D02*
X78100Y9600D01*
X90154Y21654D01*
X108110D01*
X118110D02*
X121464Y18300D01*
X198400D01*
X207100Y27000D01*
X265000D01*
X267800Y29800D01*
Y46964D01*
X262795Y51969D02*
X267800Y46964D01*
X100551Y61024D02*
X215976D01*
X230000Y47000D01*
X80866Y21654D02*
X91181Y31969D01*
X232795D01*
X169291Y23319D02*
X192913D01*
D27*
X151417Y91969D02*
D03*
X70551Y61024D02*
D03*
X80866Y21654D02*
D03*
X108110D02*
D03*
D28*
X161417Y91969D02*
D03*
X196850Y167244D02*
D03*
X165354Y167323D02*
D03*
X42795Y11969D02*
D03*
Y21969D02*
D03*
Y31969D02*
D03*
Y41969D02*
D03*
Y51969D02*
D03*
X232795Y11969D02*
D03*
Y21969D02*
D03*
Y31969D02*
D03*
Y41969D02*
D03*
Y51969D02*
D03*
Y61969D02*
D03*
Y71969D02*
D03*
Y177953D02*
D03*
Y157953D02*
D03*
Y147953D02*
D03*
Y137953D02*
D03*
Y127953D02*
D03*
Y117953D02*
D03*
Y107953D02*
D03*
Y97953D02*
D03*
Y167953D02*
D03*
X169291Y23319D02*
D03*
X192913D02*
D03*
X22795Y11969D02*
D03*
X12795D02*
D03*
X22795Y21969D02*
D03*
X12795D02*
D03*
X22795Y31969D02*
D03*
X12795D02*
D03*
X22795Y41969D02*
D03*
X12795D02*
D03*
X22795Y51969D02*
D03*
X12795D02*
D03*
X22795Y61969D02*
D03*
X12795D02*
D03*
X22795Y71969D02*
D03*
X12795D02*
D03*
X22795Y81969D02*
D03*
X12795D02*
D03*
X22795Y91969D02*
D03*
X12795D02*
D03*
X22795Y101969D02*
D03*
X12795D02*
D03*
X22795Y111969D02*
D03*
X12795D02*
D03*
X22795Y121969D02*
D03*
X12795D02*
D03*
X22795Y131969D02*
D03*
X12795D02*
D03*
X22795Y141969D02*
D03*
X12795D02*
D03*
X22795Y151969D02*
D03*
X12795D02*
D03*
X22795Y161969D02*
D03*
X12795D02*
D03*
X22795Y171969D02*
D03*
X12795D02*
D03*
X22795Y181969D02*
D03*
X12795D02*
D03*
X22795Y191969D02*
D03*
X42795Y141969D02*
D03*
Y131969D02*
D03*
Y121969D02*
D03*
Y111969D02*
D03*
Y101969D02*
D03*
Y91969D02*
D03*
Y81969D02*
D03*
X262795Y11969D02*
D03*
X252795D02*
D03*
X262795Y21969D02*
D03*
X252795D02*
D03*
X262795Y31969D02*
D03*
X252795D02*
D03*
X262795Y41969D02*
D03*
X252795D02*
D03*
X262795Y51969D02*
D03*
X252795D02*
D03*
X262795Y61969D02*
D03*
X252795D02*
D03*
X262795Y71969D02*
D03*
X252795D02*
D03*
X262795Y81969D02*
D03*
X252795D02*
D03*
X262795Y91969D02*
D03*
X252795D02*
D03*
X262795Y101969D02*
D03*
X252795D02*
D03*
X262795Y111969D02*
D03*
X252795D02*
D03*
X262795Y121969D02*
D03*
X252795D02*
D03*
X262795Y131969D02*
D03*
X252795D02*
D03*
X262795Y141969D02*
D03*
X252795D02*
D03*
X262795Y151969D02*
D03*
X252795D02*
D03*
X262795Y161969D02*
D03*
X252795D02*
D03*
X262795Y171969D02*
D03*
X252795D02*
D03*
X262795Y181969D02*
D03*
X252795D02*
D03*
X262795Y191969D02*
D03*
X100551Y61024D02*
D03*
X90551D02*
D03*
X80551D02*
D03*
X70866Y21654D02*
D03*
X118110D02*
D03*
D29*
X196850Y157244D02*
D03*
X165354Y157323D02*
D03*
X42795Y61969D02*
D03*
X232795Y81969D02*
D03*
Y187953D02*
D03*
X169291Y13319D02*
D03*
X192913D02*
D03*
X12795Y191969D02*
D03*
X42795Y151969D02*
D03*
X252795Y191969D02*
D03*
D30*
X242326Y36295D02*
D03*
X137795Y87016D02*
D03*
X153543Y150900D02*
D03*
X168760Y72835D02*
D03*
X54000Y108300D02*
D03*
X178400Y42800D02*
D03*
M02*
