G04*
G04 #@! TF.GenerationSoftware,Altium Limited,Altium Designer,18.1.6 (161)*
G04*
G04 Layer_Color=32768*
%FSLAX25Y25*%
%MOIN*%
G70*
G01*
G75*
%ADD10C,0.00394*%
%ADD31C,0.00197*%
D10*
X208465Y22441D02*
X212795D01*
X208465Y12992D02*
X212795D01*
Y22441D01*
X208465Y12992D02*
Y22441D01*
X210630Y15847D02*
Y19587D01*
X208760Y17717D02*
X212500D01*
X66929Y140354D02*
X93012D01*
Y119488D02*
Y140354D01*
X66929Y119488D02*
X93012D01*
X66929D02*
Y140354D01*
X99606Y132087D02*
Y136417D01*
X109055Y132087D02*
Y136417D01*
X99606D02*
X109055D01*
X99606Y132087D02*
X109055D01*
X102461Y134252D02*
X106201D01*
X104331Y132382D02*
Y136122D01*
X112402Y127756D02*
Y132087D01*
X121850Y127756D02*
Y132087D01*
X112402D02*
X121850D01*
X112402Y127756D02*
X121850D01*
X115256Y129921D02*
X118996D01*
X117126Y128051D02*
Y131791D01*
X125197Y123425D02*
Y127756D01*
X134646Y123425D02*
Y127756D01*
X125197D02*
X134646D01*
X125197Y123425D02*
X134646D01*
X128051Y125591D02*
X131791D01*
X129921Y123721D02*
Y127461D01*
D31*
X131004Y38386D02*
Y60039D01*
Y38386D02*
X160335D01*
Y60039D01*
X131004D02*
X160335D01*
X180216Y39173D02*
Y60827D01*
Y39173D02*
X209547D01*
Y60827D01*
X180216D02*
X209547D01*
M02*
