G04*
G04 #@! TF.GenerationSoftware,Altium Limited,Altium Designer,18.1.6 (161)*
G04*
G04 Layer_Color=16711935*
%FSLAX25Y25*%
%MOIN*%
G70*
G01*
G75*
%ADD10C,0.00394*%
%ADD11C,0.00787*%
D10*
X137992Y53858D02*
X142992Y58858D01*
X137992Y39567D02*
Y58858D01*
Y39567D02*
X153347D01*
Y58858D01*
X137992D02*
X153347D01*
X208760Y21063D02*
X212500D01*
X208760Y14370D02*
X212500D01*
Y21063D01*
X208760Y14370D02*
Y21063D01*
X187205Y54646D02*
X192205Y59646D01*
X187205Y40355D02*
Y59646D01*
Y40355D02*
X202559D01*
Y59646D01*
X187205D02*
X202559D01*
X100984Y132382D02*
Y136122D01*
X107677Y132382D02*
Y136122D01*
X100984D02*
X107677D01*
X100984Y132382D02*
X107677D01*
X113780Y128051D02*
Y131791D01*
X120472Y128051D02*
Y131791D01*
X113780D02*
X120472D01*
X113780Y128051D02*
X120472D01*
X126575Y123721D02*
Y127461D01*
X133268Y123721D02*
Y127461D01*
X126575D02*
X133268D01*
X126575Y123721D02*
X133268D01*
D11*
X74606Y136417D02*
X86811D01*
Y123425D02*
Y136417D01*
X74606Y123425D02*
X86811D01*
X74606D02*
Y136417D01*
M02*
