M48
;Layer_Color=9474304
;FILE_FORMAT=2:5
INCH,LZ
;TYPE=PLATED
T1F00S00C0.02800
T2F00S00C0.03543
%
T01
X01784Y00428
X02278Y0037
X016876Y0072835
X0137795Y0087016
X0153543Y01509
X0054Y01083
T02
X0012795Y0011969
X0022795
Y0021969
X0012795
Y0031969
X0022795
Y0041969
X0012795
Y0051969
X0022795
X0042795
Y0041969
Y0031969
Y0021969
Y0011969
X0070866Y0021654
X0080866
X010811
X011811
X0169291Y0023319
Y0013319
X0192913
Y0023319
X0232795Y0021969
Y0011969
Y0031969
Y0041969
Y0051969
X0252795
Y0041969
Y0031969
Y0021969
Y0011969
X0262795
Y0021969
Y0031969
Y0041969
Y0051969
Y0061969
X0252795
Y0071969
X0262795
Y0081969
X0252795
Y0091969
X0262795
Y0101969
X0252795
Y0111969
X0262795
Y0121969
X0252795
Y0131969
X0262795
Y0141969
X0252795
Y0151969
X0262795
Y0161969
X0252795
Y0171969
X0262795
Y0181969
X0252795
Y0191969
X0262795
X0232795Y0187953
Y0177953
Y0167953
Y0157953
Y0147953
Y0137953
Y0127953
Y0117953
Y0107953
Y0097953
Y0081969
Y0071969
Y0061969
X0161417Y0091969
X0151417
X0165354Y0157323
Y0167323
X019685Y0167244
Y0157244
X0100551Y0061024
X0090551
X0080551
X0070551
X0042795Y0061969
X0022795
X0012795
Y0071969
X0022795
Y0081969
X0012795
Y0091969
X0022795
Y0101969
X0012795
Y0111969
X0022795
Y0121969
X0012795
Y0131969
X0022795
Y0141969
X0012795
Y0151969
X0022795
Y0161969
X0012795
Y0171969
X0022795
Y0181969
X0012795
Y0191969
X0022795
X0042795Y0151969
Y0141969
Y0131969
Y0121969
Y0111969
Y0101969
Y0091969
Y0081969
M30
