G04*
G04 #@! TF.GenerationSoftware,Altium Limited,Altium Designer,18.1.6 (161)*
G04*
G04 Layer_Color=65535*
%FSLAX25Y25*%
%MOIN*%
G70*
G01*
G75*
%ADD10C,0.00394*%
%ADD11C,0.00787*%
%ADD12C,0.01000*%
%ADD13C,0.00800*%
D10*
X71260Y125591D02*
G03*
X70866Y125591I-197J0D01*
G01*
D02*
G03*
X71260Y125591I197J0D01*
G01*
X74606Y136417D02*
X86516D01*
X74606Y123425D02*
X86516D01*
D11*
X166417Y86969D02*
Y96969D01*
X146417Y86969D02*
X166417D01*
X146417D02*
Y96969D01*
X166417D01*
X191850Y172244D02*
X201850D01*
Y152244D02*
Y172244D01*
X191850Y152244D02*
X201850D01*
X191850D02*
Y172244D01*
X160354Y172323D02*
X170354D01*
Y152323D02*
Y172323D01*
X160354Y152323D02*
X170354D01*
X160354D02*
Y172323D01*
X131988Y59370D02*
X137992D01*
X139370Y39567D02*
Y58858D01*
Y39567D02*
X151969D01*
Y58858D01*
X139370D02*
X151969D01*
X37795Y6969D02*
Y66969D01*
X47795Y6969D02*
Y66969D01*
X37795D02*
X47795D01*
X37795Y6969D02*
X47795D01*
X237795D02*
Y86969D01*
X227795D02*
X237795D01*
X227795Y6969D02*
Y86969D01*
Y6969D02*
X237795D01*
X227795Y92953D02*
X237795D01*
X227795D02*
Y192953D01*
X237795D01*
Y185453D02*
Y192953D01*
Y92953D02*
Y185453D01*
X164291Y8319D02*
Y28319D01*
Y8319D02*
X174291D01*
Y28319D01*
X164291D02*
X174291D01*
X187913Y8319D02*
Y28319D01*
Y8319D02*
X197913D01*
Y28319D01*
X187913D02*
X197913D01*
X7795Y6969D02*
Y196969D01*
X27795Y6969D02*
Y196969D01*
X7795D02*
X27795D01*
X7795Y6969D02*
X27795D01*
X212008Y16929D02*
Y18504D01*
X209252Y16929D02*
Y18504D01*
X37795Y76969D02*
X47795D01*
X37795D02*
Y156969D01*
X47795D01*
Y76969D02*
Y156969D01*
X247795Y6969D02*
Y196969D01*
X267795Y6969D02*
Y196969D01*
X247795D02*
X267795D01*
X247795Y6969D02*
X267795D01*
X181201Y60158D02*
X187205D01*
X188583Y40355D02*
Y59646D01*
Y40355D02*
X201181D01*
Y59646D01*
X188583D02*
X201181D01*
X65551Y56024D02*
Y66024D01*
X105551D01*
X65551Y56024D02*
X105551D01*
Y66024D01*
X65866Y16654D02*
Y26654D01*
X85866D01*
Y16654D02*
Y26654D01*
X65866Y16654D02*
X85866D01*
X123110D02*
Y26654D01*
X103110Y16654D02*
X123110D01*
X103110D02*
Y26654D01*
X123110D01*
X103543Y135630D02*
X105118D01*
X103543Y132874D02*
X105118D01*
X116339Y131299D02*
X117913D01*
X116339Y128543D02*
X117913D01*
X129134Y126969D02*
X130709D01*
X129134Y124213D02*
X130709D01*
D12*
X157480Y84646D02*
X163478D01*
Y81647D01*
X162479Y80647D01*
X160479D01*
X159480Y81647D01*
Y84646D01*
Y82646D02*
X157480Y80647D01*
X163478Y78648D02*
X157480Y74649D01*
X163478D02*
X157480Y78648D01*
X153242Y84646D02*
Y80647D01*
Y82646D01*
X147244D01*
X153242Y78648D02*
X147244Y74649D01*
X153242D02*
X147244Y78648D01*
X63054Y180195D02*
X62054Y181195D01*
X60055D01*
X59055Y180195D01*
Y179196D01*
X60055Y178196D01*
X62054D01*
X63054Y177196D01*
Y176197D01*
X62054Y175197D01*
X60055D01*
X59055Y176197D01*
X65053Y181195D02*
X69052D01*
X67053D01*
Y175197D01*
X71051D02*
Y181195D01*
X73051Y179196D01*
X75050Y181195D01*
Y175197D01*
X87046Y180195D02*
X86046Y181195D01*
X84047D01*
X83047Y180195D01*
Y179196D01*
X84047Y178196D01*
X86046D01*
X87046Y177196D01*
Y176197D01*
X86046Y175197D01*
X84047D01*
X83047Y176197D01*
X89045Y181195D02*
Y175197D01*
Y178196D01*
X90045Y179196D01*
X92044D01*
X93044Y178196D01*
Y175197D01*
X95043D02*
X97043D01*
X96043D01*
Y179196D01*
X95043D01*
X103041Y175197D02*
X101041D01*
X100042Y176197D01*
Y178196D01*
X101041Y179196D01*
X103041D01*
X104041Y178196D01*
Y177196D01*
X100042D01*
X106040Y175197D02*
X108039D01*
X107040D01*
Y181195D01*
X106040D01*
X115037D02*
Y175197D01*
X112038D01*
X111038Y176197D01*
Y178196D01*
X112038Y179196D01*
X115037D01*
X123034D02*
X125034Y175197D01*
X127033Y179196D01*
X133031Y175197D02*
X129033D01*
X133031Y179196D01*
Y180195D01*
X132032Y181195D01*
X130032D01*
X129033Y180195D01*
X135030Y175197D02*
Y176197D01*
X136030D01*
Y175197D01*
X135030D01*
X140029Y180195D02*
X141029Y181195D01*
X143028D01*
X144028Y180195D01*
Y176197D01*
X143028Y175197D01*
X141029D01*
X140029Y176197D01*
Y180195D01*
X177227Y170353D02*
X176227Y171352D01*
X174228D01*
X173228Y170353D01*
Y166354D01*
X174228Y165354D01*
X176227D01*
X177227Y166354D01*
Y168353D01*
X175228D01*
X179226Y165354D02*
Y171352D01*
X183225Y165354D01*
Y171352D01*
X185224D02*
Y165354D01*
X188224D01*
X189223Y166354D01*
Y170353D01*
X188224Y171352D01*
X185224D01*
X103543Y68898D02*
X97545D01*
X103543Y72896D01*
X97545D01*
X98545Y78894D02*
X97545Y77895D01*
Y75895D01*
X98545Y74896D01*
X99545D01*
X100544Y75895D01*
Y77895D01*
X101544Y78894D01*
X102544D01*
X103543Y77895D01*
Y75895D01*
X102544Y74896D01*
X98545Y84892D02*
X97545Y83893D01*
Y81893D01*
X98545Y80894D01*
X99545D01*
X100544Y81893D01*
Y83893D01*
X101544Y84892D01*
X102544D01*
X103543Y83893D01*
Y81893D01*
X102544Y80894D01*
X87521Y72896D02*
X86522Y71897D01*
Y69897D01*
X87521Y68898D01*
X88521D01*
X89521Y69897D01*
Y71897D01*
X90520Y72896D01*
X91520D01*
X92520Y71897D01*
Y69897D01*
X91520Y68898D01*
X87521Y78894D02*
X86522Y77895D01*
Y75895D01*
X87521Y74896D01*
X91520D01*
X92520Y75895D01*
Y77895D01*
X91520Y78894D01*
X86522Y80894D02*
X92520D01*
X90520D01*
X86522Y84892D01*
X89521Y81893D01*
X92520Y84892D01*
X82677Y68898D02*
X76679D01*
X78679Y70897D01*
X76679Y72896D01*
X82677D01*
X76679Y77895D02*
Y75895D01*
X77679Y74896D01*
X81678D01*
X82677Y75895D01*
Y77895D01*
X81678Y78894D01*
X77679D01*
X76679Y77895D01*
X77679Y84892D02*
X76679Y83893D01*
Y81893D01*
X77679Y80894D01*
X78679D01*
X79678Y81893D01*
Y83893D01*
X80678Y84892D01*
X81678D01*
X82677Y83893D01*
Y81893D01*
X81678Y80894D01*
X76679Y86892D02*
Y88891D01*
Y87892D01*
X82677D01*
Y86892D01*
Y88891D01*
X72835Y68898D02*
X66837D01*
X68836Y70897D01*
X66837Y72896D01*
X72835D01*
X66837Y74896D02*
Y76895D01*
Y75895D01*
X72835D01*
Y74896D01*
Y76895D01*
X67836Y83893D02*
X66837Y82893D01*
Y80894D01*
X67836Y79894D01*
X68836D01*
X69836Y80894D01*
Y82893D01*
X70835Y83893D01*
X71835D01*
X72835Y82893D01*
Y80894D01*
X71835Y79894D01*
X66837Y88891D02*
Y86892D01*
X67836Y85892D01*
X71835D01*
X72835Y86892D01*
Y88891D01*
X71835Y89891D01*
X67836D01*
X66837Y88891D01*
X84646Y30026D02*
X78648D01*
Y33025D01*
X79647Y34025D01*
X81647D01*
X82646Y33025D01*
Y30026D01*
Y32025D02*
X84646Y34025D01*
X78648Y36024D02*
X84646Y40023D01*
X78648D02*
X84646Y36024D01*
X66837Y29528D02*
Y33526D01*
Y31527D01*
X72835D01*
X66837Y35526D02*
X72835Y39524D01*
X66837D02*
X72835Y35526D01*
X117049Y34025D02*
X116049Y33025D01*
Y31026D01*
X117049Y30026D01*
X118049D01*
X119048Y31026D01*
Y33025D01*
X120048Y34025D01*
X121048D01*
X122047Y33025D01*
Y31026D01*
X121048Y30026D01*
X117049Y40023D02*
X116049Y39023D01*
Y37024D01*
X117049Y36024D01*
X121048D01*
X122047Y37024D01*
Y39023D01*
X121048Y40023D01*
X116049Y42022D02*
X122047D01*
Y46021D01*
X105238Y33526D02*
X104238Y32527D01*
Y30527D01*
X105238Y29528D01*
X106237D01*
X107237Y30527D01*
Y32527D01*
X108237Y33526D01*
X109237D01*
X110236Y32527D01*
Y30527D01*
X109237Y29528D01*
X104238Y35526D02*
X110236D01*
Y38525D01*
X109237Y39524D01*
X105238D01*
X104238Y38525D01*
Y35526D01*
X110236Y41524D02*
X106237D01*
X104238Y43523D01*
X106237Y45522D01*
X110236D01*
X107237D01*
Y41524D01*
X179134Y16628D02*
Y10630D01*
Y13629D01*
X183133D01*
Y16628D01*
Y10630D01*
X179134Y26786D02*
Y20788D01*
X183133D01*
X160942Y175676D02*
Y181674D01*
X163942D01*
X164941Y180674D01*
Y178675D01*
X163942Y177675D01*
X160942D01*
X166940Y175676D02*
X168940D01*
X167940D01*
Y181674D01*
X166940Y180674D01*
X174938Y175676D02*
Y181674D01*
X171939Y178675D01*
X175938D01*
X141634Y158542D02*
X142633Y159541D01*
X144633D01*
X145633Y158542D01*
Y157542D01*
X144633Y156542D01*
X143633D01*
X144633D01*
X145633Y155543D01*
Y154543D01*
X144633Y153543D01*
X142633D01*
X141634Y154543D01*
X147632Y157542D02*
X149631Y153543D01*
X151631Y157542D01*
X153630Y158542D02*
X154630Y159541D01*
X156629D01*
X157629Y158542D01*
Y157542D01*
X156629Y156542D01*
X155629D01*
X156629D01*
X157629Y155543D01*
Y154543D01*
X156629Y153543D01*
X154630D01*
X153630Y154543D01*
X192426Y175676D02*
Y181674D01*
X195425D01*
X196425Y180674D01*
Y178675D01*
X195425Y177675D01*
X192426D01*
X198424Y175676D02*
X200423D01*
X199424D01*
Y181674D01*
X198424Y180674D01*
X203422D02*
X204422Y181674D01*
X206421D01*
X207421Y180674D01*
Y179674D01*
X206421Y178675D01*
X205422D01*
X206421D01*
X207421Y177675D01*
Y176675D01*
X206421Y175676D01*
X204422D01*
X203422Y176675D01*
X208723Y159541D02*
X204724D01*
Y156542D01*
X206724Y157542D01*
X207723D01*
X208723Y156542D01*
Y154543D01*
X207723Y153543D01*
X205724D01*
X204724Y154543D01*
X210722Y157542D02*
X212722Y153543D01*
X214721Y157542D01*
X141400Y104841D02*
X140401Y105841D01*
X138401D01*
X137401Y104841D01*
Y100842D01*
X138401Y99843D01*
X140401D01*
X141400Y100842D01*
X143400Y99843D02*
Y103841D01*
X145399Y105841D01*
X147398Y103841D01*
Y99843D01*
Y102842D01*
X143400D01*
X149398Y99843D02*
Y105841D01*
X153396Y99843D01*
Y105841D01*
X155396Y98843D02*
X159394D01*
X161394Y99843D02*
Y103841D01*
X163393Y105841D01*
X165392Y103841D01*
Y99843D01*
Y102842D01*
X161394D01*
X167392Y105841D02*
Y100842D01*
X168391Y99843D01*
X170391D01*
X171390Y100842D01*
Y105841D01*
X173390D02*
X177389Y99843D01*
Y105841D02*
X173390Y99843D01*
X131909Y69098D02*
X133909D01*
X132909D01*
Y63100D01*
X131909D01*
X133909D01*
X140907Y68098D02*
X139907Y69098D01*
X137908D01*
X136908Y68098D01*
Y64100D01*
X137908Y63100D01*
X139907D01*
X140907Y64100D01*
X146905Y63100D02*
X142906D01*
X146905Y67099D01*
Y68098D01*
X145905Y69098D01*
X143906D01*
X142906Y68098D01*
X8400Y205800D02*
Y211798D01*
X11399D01*
X12399Y210798D01*
Y208799D01*
X11399Y207799D01*
X8400D01*
X18397Y205800D02*
X14398D01*
X18397Y209799D01*
Y210798D01*
X17397Y211798D01*
X15398D01*
X14398Y210798D01*
X126031Y131000D02*
Y136998D01*
X129031D01*
X130030Y135998D01*
Y133999D01*
X129031Y132999D01*
X126031D01*
X128031D02*
X130030Y131000D01*
X135029D02*
Y136998D01*
X132030Y133999D01*
X136028D01*
X113176Y135271D02*
Y141269D01*
X116175D01*
X117175Y140270D01*
Y138270D01*
X116175Y137271D01*
X113176D01*
X115175D02*
X117175Y135271D01*
X119174Y140270D02*
X120174Y141269D01*
X122173D01*
X123173Y140270D01*
Y139270D01*
X122173Y138270D01*
X121173D01*
X122173D01*
X123173Y137271D01*
Y136271D01*
X122173Y135271D01*
X120174D01*
X119174Y136271D01*
X216535Y21969D02*
X222533D01*
Y18970D01*
X221534Y17970D01*
X219534D01*
X218535Y18970D01*
Y21969D01*
Y19969D02*
X216535Y17970D01*
Y11972D02*
Y15970D01*
X220534Y11972D01*
X221534D01*
X222533Y12971D01*
Y14971D01*
X221534Y15970D01*
X100381Y139602D02*
Y145600D01*
X103380D01*
X104379Y144600D01*
Y142601D01*
X103380Y141601D01*
X100381D01*
X102380D02*
X104379Y139602D01*
X106379D02*
X108378D01*
X107378D01*
Y145600D01*
X106379Y144600D01*
X103715Y13298D02*
X105714D01*
X104715D01*
Y7300D01*
X103715D01*
X105714D01*
X112712D02*
X108713D01*
X112712Y11299D01*
Y12298D01*
X111712Y13298D01*
X109713D01*
X108713Y12298D01*
X118710D02*
X117710Y13298D01*
X115711D01*
X114711Y12298D01*
Y8300D01*
X115711Y7300D01*
X117710D01*
X118710Y8300D01*
X124708Y7300D02*
X120710D01*
X124708Y11299D01*
Y12298D01*
X123709Y13298D01*
X121709D01*
X120710Y12298D01*
X70199Y51598D02*
X69199Y52598D01*
X67200D01*
X66200Y51598D01*
Y50599D01*
X67200Y49599D01*
X69199D01*
X70199Y48599D01*
Y47600D01*
X69199Y46600D01*
X67200D01*
X66200Y47600D01*
X72198Y46600D02*
Y52598D01*
X75197D01*
X76197Y51598D01*
Y49599D01*
X75197Y48599D01*
X72198D01*
X78196Y52598D02*
X80195D01*
X79196D01*
Y46600D01*
X78196D01*
X80195D01*
X83195D02*
X85194D01*
X84194D01*
Y52598D01*
X83195Y51598D01*
X66500Y13298D02*
Y8300D01*
X67500Y7300D01*
X69499D01*
X70499Y8300D01*
Y13298D01*
X76497Y12298D02*
X75497Y13298D01*
X73498D01*
X72498Y12298D01*
Y11299D01*
X73498Y10299D01*
X75497D01*
X76497Y9299D01*
Y8300D01*
X75497Y7300D01*
X73498D01*
X72498Y8300D01*
X78496Y7300D02*
Y11299D01*
X80496Y13298D01*
X82495Y11299D01*
Y7300D01*
Y10299D01*
X78496D01*
X84494Y7300D02*
Y13298D01*
X87493D01*
X88493Y12298D01*
Y10299D01*
X87493Y9299D01*
X84494D01*
X86493D02*
X88493Y7300D01*
X90492Y13298D02*
X94491D01*
X92492D01*
Y7300D01*
X96490D02*
X98490D01*
X97490D01*
Y13298D01*
X96490Y12298D01*
X202528Y7269D02*
X201694Y6436D01*
Y4770D01*
X202528Y3937D01*
X205860D01*
X206693Y4770D01*
Y6436D01*
X205860Y7269D01*
X206693Y8935D02*
X203361D01*
X201694Y10601D01*
X203361Y12268D01*
X206693D01*
X204194D01*
Y8935D01*
X206693Y13934D02*
X201694D01*
X206693Y17266D01*
X201694D01*
X207526Y18932D02*
Y22264D01*
X201694Y26430D02*
Y24764D01*
X202528Y23931D01*
X205860D01*
X206693Y24764D01*
Y26430D01*
X205860Y27263D01*
X202528D01*
X201694Y26430D01*
Y28929D02*
X205860D01*
X206693Y29762D01*
Y31428D01*
X205860Y32261D01*
X201694D01*
Y33927D02*
Y37260D01*
Y35593D01*
X206693D01*
X157252Y7269D02*
X156419Y6436D01*
Y4770D01*
X157252Y3937D01*
X160584D01*
X161417Y4770D01*
Y6436D01*
X160584Y7269D01*
X161417Y8935D02*
X158085D01*
X156419Y10601D01*
X158085Y12268D01*
X161417D01*
X158918D01*
Y8935D01*
X161417Y13934D02*
X156419D01*
X161417Y17266D01*
X156419D01*
X162250Y18932D02*
Y22264D01*
X156419Y23931D02*
Y25597D01*
Y24764D01*
X161417D01*
Y23931D01*
Y25597D01*
Y28096D02*
X156419D01*
X161417Y31428D01*
X156419D01*
X214567Y75937D02*
Y81935D01*
X217566D01*
X218566Y80935D01*
Y78936D01*
X217566Y77936D01*
X214567D01*
X224564Y81935D02*
X220565D01*
Y78936D01*
X222564Y79936D01*
X223564D01*
X224564Y78936D01*
Y76937D01*
X223564Y75937D01*
X221565D01*
X220565Y76937D01*
X38400Y160400D02*
Y166398D01*
X41399D01*
X42399Y165398D01*
Y163399D01*
X41399Y162399D01*
X38400D01*
X44398Y165398D02*
X45398Y166398D01*
X47397D01*
X48397Y165398D01*
Y164399D01*
X47397Y163399D01*
X46397D01*
X47397D01*
X48397Y162399D01*
Y161400D01*
X47397Y160400D01*
X45398D01*
X44398Y161400D01*
X214567Y175197D02*
Y181195D01*
X217566D01*
X218566Y180195D01*
Y178196D01*
X217566Y177196D01*
X214567D01*
X220565Y175197D02*
X222564D01*
X221565D01*
Y181195D01*
X220565Y180195D01*
X67769Y149503D02*
Y143505D01*
X71767D01*
X77765Y149503D02*
X73767D01*
Y143505D01*
X77765D01*
X73767Y146504D02*
X75766D01*
X79765Y149503D02*
Y143505D01*
X82764D01*
X83763Y144504D01*
Y148503D01*
X82764Y149503D01*
X79765D01*
X85763Y143505D02*
X87762D01*
X86762D01*
Y149503D01*
X85763Y148503D01*
X181152Y69886D02*
X183151D01*
X182152D01*
Y63888D01*
X181152D01*
X183151D01*
X190149Y68886D02*
X189149Y69886D01*
X187150D01*
X186150Y68886D01*
Y64887D01*
X187150Y63888D01*
X189149D01*
X190149Y64887D01*
X192148Y63888D02*
X194148D01*
X193148D01*
Y69886D01*
X192148Y68886D01*
D13*
X20795Y198636D02*
Y201969D01*
X24127Y198636D01*
X24961D01*
X25794Y199469D01*
Y201135D01*
X24961Y201969D01*
X10795D02*
Y200302D01*
Y201135D01*
X15794D01*
X14961Y201969D01*
X9843Y4468D02*
X10342Y4967D01*
X11342D01*
X11842Y4468D01*
Y3968D01*
X11342Y3468D01*
X10842D01*
X11342D01*
X11842Y2968D01*
Y2468D01*
X11342Y1969D01*
X10342D01*
X9843Y2468D01*
X12842Y4967D02*
X14841D01*
Y4468D01*
X12842Y2468D01*
Y1969D01*
X21654Y4468D02*
X22153Y4967D01*
X23153D01*
X23653Y4468D01*
Y3968D01*
X23153Y3468D01*
X22653D01*
X23153D01*
X23653Y2968D01*
Y2468D01*
X23153Y1969D01*
X22153D01*
X21654Y2468D01*
X24653Y4468D02*
X25152Y4967D01*
X26152D01*
X26652Y4468D01*
Y3968D01*
X26152Y3468D01*
X26652Y2968D01*
Y2468D01*
X26152Y1969D01*
X25152D01*
X24653Y2468D01*
Y2968D01*
X25152Y3468D01*
X24653Y3968D01*
Y4468D01*
X25152Y3468D02*
X26152D01*
X260795Y198636D02*
Y201969D01*
X264127Y198636D01*
X264961D01*
X265794Y199469D01*
Y201135D01*
X264961Y201969D01*
X250795D02*
Y200302D01*
Y201135D01*
X255794D01*
X254961Y201969D01*
X250000Y4468D02*
X250500Y4967D01*
X251500D01*
X251999Y4468D01*
Y3968D01*
X251500Y3468D01*
X251000D01*
X251500D01*
X251999Y2968D01*
Y2468D01*
X251500Y1969D01*
X250500D01*
X250000Y2468D01*
X252999Y4967D02*
X254998D01*
Y4468D01*
X252999Y2468D01*
Y1969D01*
X261811Y4468D02*
X262311Y4967D01*
X263311D01*
X263810Y4468D01*
Y3968D01*
X263311Y3468D01*
X262811D01*
X263311D01*
X263810Y2968D01*
Y2468D01*
X263311Y1969D01*
X262311D01*
X261811Y2468D01*
X264810Y4468D02*
X265310Y4967D01*
X266310D01*
X266809Y4468D01*
Y3968D01*
X266310Y3468D01*
X266809Y2968D01*
Y2468D01*
X266310Y1969D01*
X265310D01*
X264810Y2468D01*
Y2968D01*
X265310Y3468D01*
X264810Y3968D01*
Y4468D01*
X265310Y3468D02*
X266310D01*
M02*
