G04*
G04 #@! TF.GenerationSoftware,Altium Limited,Altium Designer,18.1.6 (161)*
G04*
G04 Layer_Color=2752767*
%FSLAX25Y25*%
%MOIN*%
G70*
G01*
G75*
%ADD32C,0.00200*%
%ADD33C,0.00267*%
D32*
X150617Y91169D02*
Y92769D01*
X152217D01*
Y91169D01*
X150617D01*
X160617D02*
Y92769D01*
X162217D01*
Y91169D01*
X160617D01*
X196050Y156444D02*
Y158044D01*
X197650D01*
Y156444D01*
X196050D01*
Y166444D02*
Y168044D01*
X197650D01*
Y166444D01*
X196050D01*
X164554Y156523D02*
Y158123D01*
X166154D01*
Y156523D01*
X164554D01*
Y166523D02*
Y168123D01*
X166154D01*
Y166523D01*
X164554D01*
X41995Y11169D02*
Y12769D01*
X43595D01*
Y11169D01*
X41995D01*
Y21169D02*
Y22769D01*
X43595D01*
Y21169D01*
X41995D01*
Y31169D02*
Y32769D01*
X43595D01*
Y31169D01*
X41995D01*
Y41169D02*
Y42769D01*
X43595D01*
Y41169D01*
X41995D01*
Y51169D02*
Y52769D01*
X43595D01*
Y51169D01*
X41995D01*
Y61169D02*
Y62769D01*
X43595D01*
Y61169D01*
X41995D01*
X231995Y11169D02*
Y12769D01*
X233595D01*
Y11169D01*
X231995D01*
Y21169D02*
Y22769D01*
X233595D01*
Y21169D01*
X231995D01*
Y31169D02*
Y32769D01*
X233595D01*
Y31169D01*
X231995D01*
Y41169D02*
Y42769D01*
X233595D01*
Y41169D01*
X231995D01*
Y51169D02*
Y52769D01*
X233595D01*
Y51169D01*
X231995D01*
Y61169D02*
Y62769D01*
X233595D01*
Y61169D01*
X231995D01*
Y71169D02*
Y72769D01*
X233595D01*
Y71169D01*
X231995D01*
Y81169D02*
Y82769D01*
X233595D01*
Y81169D01*
X231995D01*
Y187153D02*
Y188753D01*
X233595D01*
Y187153D01*
X231995D01*
Y177153D02*
Y178753D01*
X233595D01*
Y177153D01*
X231995D01*
Y157153D02*
Y158753D01*
X233595D01*
Y157153D01*
X231995D01*
Y147153D02*
Y148753D01*
X233595D01*
Y147153D01*
X231995D01*
Y137153D02*
Y138753D01*
X233595D01*
Y137153D01*
X231995D01*
Y127153D02*
Y128753D01*
X233595D01*
Y127153D01*
X231995D01*
Y117153D02*
Y118753D01*
X233595D01*
Y117153D01*
X231995D01*
Y107153D02*
Y108753D01*
X233595D01*
Y107153D01*
X231995D01*
Y97153D02*
Y98753D01*
X233595D01*
Y97153D01*
X231995D01*
Y167153D02*
Y168753D01*
X233595D01*
Y167153D01*
X231995D01*
X168491Y22519D02*
Y24119D01*
X170091D01*
Y22519D01*
X168491D01*
Y12519D02*
Y14119D01*
X170091D01*
Y12519D01*
X168491D01*
X192113Y22519D02*
Y24119D01*
X193713D01*
Y22519D01*
X192113D01*
Y12519D02*
Y14119D01*
X193713D01*
Y12519D01*
X192113D01*
X21995Y11169D02*
Y12769D01*
X23595D01*
Y11169D01*
X21995D01*
X11995D02*
Y12769D01*
X13595D01*
Y11169D01*
X11995D01*
X21995Y21169D02*
Y22769D01*
X23595D01*
Y21169D01*
X21995D01*
X11995D02*
Y22769D01*
X13595D01*
Y21169D01*
X11995D01*
X21995Y31169D02*
Y32769D01*
X23595D01*
Y31169D01*
X21995D01*
X11995D02*
Y32769D01*
X13595D01*
Y31169D01*
X11995D01*
X21995Y41169D02*
Y42769D01*
X23595D01*
Y41169D01*
X21995D01*
X11995D02*
Y42769D01*
X13595D01*
Y41169D01*
X11995D01*
X21995Y51169D02*
Y52769D01*
X23595D01*
Y51169D01*
X21995D01*
X11995D02*
Y52769D01*
X13595D01*
Y51169D01*
X11995D01*
X21995Y61169D02*
Y62769D01*
X23595D01*
Y61169D01*
X21995D01*
X11995D02*
Y62769D01*
X13595D01*
Y61169D01*
X11995D01*
X21995Y71169D02*
Y72769D01*
X23595D01*
Y71169D01*
X21995D01*
X11995D02*
Y72769D01*
X13595D01*
Y71169D01*
X11995D01*
X21995Y81169D02*
Y82769D01*
X23595D01*
Y81169D01*
X21995D01*
X11995D02*
Y82769D01*
X13595D01*
Y81169D01*
X11995D01*
X21995Y91169D02*
Y92769D01*
X23595D01*
Y91169D01*
X21995D01*
X11995D02*
Y92769D01*
X13595D01*
Y91169D01*
X11995D01*
X21995Y101169D02*
Y102769D01*
X23595D01*
Y101169D01*
X21995D01*
X11995D02*
Y102769D01*
X13595D01*
Y101169D01*
X11995D01*
X21995Y111169D02*
Y112769D01*
X23595D01*
Y111169D01*
X21995D01*
X11995D02*
Y112769D01*
X13595D01*
Y111169D01*
X11995D01*
X21995Y121169D02*
Y122769D01*
X23595D01*
Y121169D01*
X21995D01*
X11995D02*
Y122769D01*
X13595D01*
Y121169D01*
X11995D01*
X21995Y131169D02*
Y132769D01*
X23595D01*
Y131169D01*
X21995D01*
X11995D02*
Y132769D01*
X13595D01*
Y131169D01*
X11995D01*
X21995Y141169D02*
Y142769D01*
X23595D01*
Y141169D01*
X21995D01*
X11995D02*
Y142769D01*
X13595D01*
Y141169D01*
X11995D01*
X21995Y151169D02*
Y152769D01*
X23595D01*
Y151169D01*
X21995D01*
X11995D02*
Y152769D01*
X13595D01*
Y151169D01*
X11995D01*
X21995Y161169D02*
Y162769D01*
X23595D01*
Y161169D01*
X21995D01*
X11995D02*
Y162769D01*
X13595D01*
Y161169D01*
X11995D01*
X21995Y171169D02*
Y172769D01*
X23595D01*
Y171169D01*
X21995D01*
X11995D02*
Y172769D01*
X13595D01*
Y171169D01*
X11995D01*
X21995Y181169D02*
Y182769D01*
X23595D01*
Y181169D01*
X21995D01*
X11995D02*
Y182769D01*
X13595D01*
Y181169D01*
X11995D01*
X21995Y191169D02*
Y192769D01*
X23595D01*
Y191169D01*
X21995D01*
X11995D02*
Y192769D01*
X13595D01*
Y191169D01*
X11995D01*
X41995Y151169D02*
Y152769D01*
X43595D01*
Y151169D01*
X41995D01*
Y141169D02*
Y142769D01*
X43595D01*
Y141169D01*
X41995D01*
Y131169D02*
Y132769D01*
X43595D01*
Y131169D01*
X41995D01*
Y121169D02*
Y122769D01*
X43595D01*
Y121169D01*
X41995D01*
Y111169D02*
Y112769D01*
X43595D01*
Y111169D01*
X41995D01*
Y101169D02*
Y102769D01*
X43595D01*
Y101169D01*
X41995D01*
Y91169D02*
Y92769D01*
X43595D01*
Y91169D01*
X41995D01*
Y81169D02*
Y82769D01*
X43595D01*
Y81169D01*
X41995D01*
X261995Y11169D02*
Y12769D01*
X263595D01*
Y11169D01*
X261995D01*
X251995D02*
Y12769D01*
X253595D01*
Y11169D01*
X251995D01*
X261995Y21169D02*
Y22769D01*
X263595D01*
Y21169D01*
X261995D01*
X251995D02*
Y22769D01*
X253595D01*
Y21169D01*
X251995D01*
X261995Y31169D02*
Y32769D01*
X263595D01*
Y31169D01*
X261995D01*
X251995D02*
Y32769D01*
X253595D01*
Y31169D01*
X251995D01*
X261995Y41169D02*
Y42769D01*
X263595D01*
Y41169D01*
X261995D01*
X251995D02*
Y42769D01*
X253595D01*
Y41169D01*
X251995D01*
X261995Y51169D02*
Y52769D01*
X263595D01*
Y51169D01*
X261995D01*
X251995D02*
Y52769D01*
X253595D01*
Y51169D01*
X251995D01*
X261995Y61169D02*
Y62769D01*
X263595D01*
Y61169D01*
X261995D01*
X251995D02*
Y62769D01*
X253595D01*
Y61169D01*
X251995D01*
X261995Y71169D02*
Y72769D01*
X263595D01*
Y71169D01*
X261995D01*
X251995D02*
Y72769D01*
X253595D01*
Y71169D01*
X251995D01*
X261995Y81169D02*
Y82769D01*
X263595D01*
Y81169D01*
X261995D01*
X251995D02*
Y82769D01*
X253595D01*
Y81169D01*
X251995D01*
X261995Y91169D02*
Y92769D01*
X263595D01*
Y91169D01*
X261995D01*
X251995D02*
Y92769D01*
X253595D01*
Y91169D01*
X251995D01*
X261995Y101169D02*
Y102769D01*
X263595D01*
Y101169D01*
X261995D01*
X251995D02*
Y102769D01*
X253595D01*
Y101169D01*
X251995D01*
X261995Y111169D02*
Y112769D01*
X263595D01*
Y111169D01*
X261995D01*
X251995D02*
Y112769D01*
X253595D01*
Y111169D01*
X251995D01*
X261995Y121169D02*
Y122769D01*
X263595D01*
Y121169D01*
X261995D01*
X251995D02*
Y122769D01*
X253595D01*
Y121169D01*
X251995D01*
X261995Y131169D02*
Y132769D01*
X263595D01*
Y131169D01*
X261995D01*
X251995D02*
Y132769D01*
X253595D01*
Y131169D01*
X251995D01*
X261995Y141169D02*
Y142769D01*
X263595D01*
Y141169D01*
X261995D01*
X251995D02*
Y142769D01*
X253595D01*
Y141169D01*
X251995D01*
X261995Y151169D02*
Y152769D01*
X263595D01*
Y151169D01*
X261995D01*
X251995D02*
Y152769D01*
X253595D01*
Y151169D01*
X251995D01*
X261995Y161169D02*
Y162769D01*
X263595D01*
Y161169D01*
X261995D01*
X251995D02*
Y162769D01*
X253595D01*
Y161169D01*
X251995D01*
X261995Y171169D02*
Y172769D01*
X263595D01*
Y171169D01*
X261995D01*
X251995D02*
Y172769D01*
X253595D01*
Y171169D01*
X251995D01*
X261995Y181169D02*
Y182769D01*
X263595D01*
Y181169D01*
X261995D01*
X251995D02*
Y182769D01*
X253595D01*
Y181169D01*
X251995D01*
X261995Y191169D02*
Y192769D01*
X263595D01*
Y191169D01*
X261995D01*
X251995D02*
Y192769D01*
X253595D01*
Y191169D01*
X251995D01*
X99751Y60224D02*
Y61824D01*
X101351D01*
Y60224D01*
X99751D01*
X89751D02*
Y61824D01*
X91351D01*
Y60224D01*
X89751D01*
X79751D02*
Y61824D01*
X81351D01*
Y60224D01*
X79751D01*
X69751D02*
Y61824D01*
X71351D01*
Y60224D01*
X69751D01*
X80066Y20854D02*
Y22454D01*
X81666D01*
Y20854D01*
X80066D01*
X70066D02*
Y22454D01*
X71666D01*
Y20854D01*
X70066D01*
X107310D02*
Y22454D01*
X108910D01*
Y20854D01*
X107310D01*
X117310D02*
Y22454D01*
X118910D01*
Y20854D01*
X117310D01*
D33*
X138595Y87016D02*
G03*
X138595Y87016I-800J0D01*
G01*
X154343Y150900D02*
G03*
X154343Y150900I-800J0D01*
G01*
X169560Y72835D02*
G03*
X169560Y72835I-800J0D01*
G01*
X54800Y108300D02*
G03*
X54800Y108300I-800J0D01*
G01*
X179200Y42800D02*
G03*
X179200Y42800I-800J0D01*
G01*
X228600Y37000D02*
G03*
X228600Y37000I-800J0D01*
G01*
M02*
