G04*
G04 #@! TF.GenerationSoftware,Altium Limited,Altium Designer,18.1.6 (161)*
G04*
G04 Layer_Physical_Order=1*
G04 Layer_Color=255*
%FSLAX25Y25*%
%MOIN*%
G70*
G01*
G75*
%ADD14R,0.06004X0.02559*%
%ADD15R,0.03543X0.02756*%
%ADD16R,0.05118X0.02756*%
%ADD17R,0.02756X0.03543*%
%ADD26C,0.02000*%
%ADD27R,0.05906X0.05906*%
%ADD28C,0.05906*%
%ADD29R,0.05906X0.05906*%
%ADD30C,0.05000*%
G36*
X273042Y2549D02*
X2549D01*
Y213986D01*
X24535D01*
X52332Y186190D01*
X55284Y183237D01*
X55284Y183237D01*
X55284Y183237D01*
X55664Y182983D01*
X56111Y182685D01*
X56111Y182685D01*
X56111Y182684D01*
X56541Y182599D01*
X57086Y182490D01*
X57087Y182490D01*
X57087Y182490D01*
X208661D01*
X209637Y182684D01*
X210464Y183237D01*
X218338Y191111D01*
X241213Y213986D01*
X273042D01*
Y2549D01*
D02*
G37*
%LPC*%
G36*
X262795Y196964D02*
X261502Y196794D01*
X260297Y196295D01*
X259263Y195501D01*
X258469Y194466D01*
X258248Y193933D01*
X257748Y194032D01*
Y196921D01*
X247843D01*
Y187016D01*
X250732D01*
X250831Y186516D01*
X250297Y186295D01*
X249263Y185501D01*
X248469Y184466D01*
X247970Y183262D01*
X247800Y181969D01*
X247970Y180676D01*
X248469Y179471D01*
X249263Y178436D01*
X250297Y177642D01*
X251271Y177239D01*
Y176698D01*
X250297Y176295D01*
X249263Y175501D01*
X248469Y174466D01*
X247970Y173261D01*
X247800Y171969D01*
X247970Y170676D01*
X248469Y169471D01*
X249263Y168436D01*
X250297Y167642D01*
X251271Y167239D01*
Y166698D01*
X250297Y166295D01*
X249263Y165501D01*
X248469Y164466D01*
X247970Y163261D01*
X247800Y161969D01*
X247970Y160676D01*
X248469Y159471D01*
X249263Y158436D01*
X250297Y157642D01*
X251502Y157143D01*
X252795Y156973D01*
X254088Y157143D01*
X255293Y157642D01*
X256328Y158436D01*
X257121Y159471D01*
X257525Y160444D01*
X258066D01*
X258469Y159471D01*
X259263Y158436D01*
X260297Y157642D01*
X261271Y157239D01*
Y156698D01*
X260297Y156295D01*
X259263Y155501D01*
X258469Y154466D01*
X257970Y153261D01*
X257800Y151969D01*
X257970Y150676D01*
X258075Y150422D01*
X257961Y150273D01*
X257698Y150026D01*
X256719D01*
X256441Y150442D01*
X256646Y150937D01*
X256716Y151469D01*
X252795D01*
Y151969D01*
D01*
Y151469D01*
X248874D01*
X248944Y150937D01*
X249149Y150442D01*
X248871Y150026D01*
X246900D01*
X246117Y149923D01*
X245387Y149620D01*
X244760Y149140D01*
X244760Y149140D01*
X236933Y141313D01*
X236435Y141346D01*
X236328Y141485D01*
X235293Y142279D01*
X234320Y142682D01*
Y143223D01*
X235293Y143626D01*
X236328Y144420D01*
X237121Y145455D01*
X237620Y146660D01*
X237791Y147953D01*
X237620Y149246D01*
X237121Y150450D01*
X236328Y151485D01*
X235293Y152279D01*
X234088Y152778D01*
X232795Y152948D01*
X231502Y152778D01*
X230297Y152279D01*
X229263Y151485D01*
X228469Y150450D01*
X227970Y149246D01*
X227800Y147953D01*
X227970Y146660D01*
X228469Y145455D01*
X229263Y144420D01*
X230297Y143626D01*
X231271Y143223D01*
Y142682D01*
X230297Y142279D01*
X229263Y141485D01*
X228469Y140450D01*
X227970Y139245D01*
X227800Y137953D01*
X227808Y137889D01*
X227360Y137667D01*
X204926Y160101D01*
Y170000D01*
X204926Y170000D01*
X204823Y170783D01*
X204521Y171513D01*
X204040Y172140D01*
X204040Y172140D01*
X199940Y176240D01*
X199313Y176720D01*
X198583Y177023D01*
X197800Y177126D01*
X152500D01*
X152500Y177126D01*
X151717Y177023D01*
X150987Y176720D01*
X150360Y176240D01*
X143160Y169040D01*
X142680Y168413D01*
X142377Y167683D01*
X142274Y166900D01*
Y127026D01*
X81184Y65936D01*
X80551Y66019D01*
X79258Y65849D01*
X78053Y65350D01*
X77019Y64556D01*
X76225Y63521D01*
X76004Y62988D01*
X75504Y63087D01*
Y65976D01*
X65598D01*
Y56071D01*
X75504D01*
Y58960D01*
X76004Y59060D01*
X76225Y58526D01*
X77019Y57491D01*
X78053Y56697D01*
X79258Y56198D01*
X80551Y56028D01*
X81844Y56198D01*
X83049Y56697D01*
X84083Y57491D01*
X84877Y58526D01*
X85281Y59499D01*
X85822D01*
X86225Y58526D01*
X87019Y57491D01*
X88054Y56697D01*
X89258Y56198D01*
X90551Y56028D01*
X91844Y56198D01*
X93049Y56697D01*
X94083Y57491D01*
X94877Y58526D01*
X95281Y59499D01*
X95822D01*
X96225Y58526D01*
X97019Y57491D01*
X98053Y56697D01*
X99258Y56198D01*
X100551Y56028D01*
X101844Y56198D01*
X103049Y56697D01*
X104084Y57491D01*
X104877Y58526D01*
X105377Y59731D01*
X105547Y61024D01*
X105377Y62317D01*
X104877Y63521D01*
X104084Y64556D01*
X103049Y65350D01*
X101844Y65849D01*
X100551Y66019D01*
X99258Y65849D01*
X98053Y65350D01*
X97019Y64556D01*
X96225Y63521D01*
X95822Y62548D01*
X95281D01*
X94877Y63521D01*
X94083Y64556D01*
X93049Y65350D01*
X91844Y65849D01*
X90551Y66019D01*
X90487Y66011D01*
X90266Y66459D01*
X147440Y123633D01*
X147921Y124259D01*
X148223Y124989D01*
X148326Y125772D01*
Y165647D01*
X153753Y171074D01*
X162929D01*
X163099Y170574D01*
X162535Y170142D01*
X161902Y169316D01*
X161503Y168355D01*
X161433Y167823D01*
X165354D01*
X169275D01*
X169205Y168355D01*
X168807Y169316D01*
X168174Y170142D01*
X167610Y170574D01*
X167780Y171074D01*
X194527D01*
X194697Y170574D01*
X194031Y170063D01*
X193398Y169238D01*
X192999Y168276D01*
X192929Y167744D01*
X196850D01*
Y167244D01*
X197350D01*
Y163323D01*
X197882Y163393D01*
X198374Y163597D01*
X198874Y163263D01*
Y162197D01*
X191898D01*
Y156571D01*
X177388Y142061D01*
X176926Y142252D01*
Y148777D01*
X176823Y149560D01*
X176521Y150290D01*
X176040Y150917D01*
X170307Y156649D01*
Y162276D01*
X160402D01*
Y152370D01*
X163374D01*
Y96969D01*
X162958Y96691D01*
X162710Y96794D01*
X161417Y96964D01*
X160124Y96794D01*
X158920Y96295D01*
X157885Y95501D01*
X157091Y94466D01*
X156870Y93933D01*
X156370Y94032D01*
Y96921D01*
X146465D01*
Y87016D01*
X148391D01*
Y81804D01*
X132853Y66266D01*
X132372Y65639D01*
X132069Y64909D01*
X131966Y64126D01*
Y59992D01*
X129990D01*
Y53433D01*
X130990D01*
Y52213D01*
X134992D01*
Y51213D01*
X130990D01*
Y49992D01*
X129990D01*
Y49738D01*
X122120D01*
X121136Y50722D01*
Y82557D01*
X155683Y117104D01*
X156164Y117730D01*
X156466Y118460D01*
X156569Y119243D01*
X156569Y119243D01*
Y147550D01*
X156753Y147691D01*
X157474Y148631D01*
X157928Y149725D01*
X158082Y150900D01*
X157928Y152075D01*
X157474Y153169D01*
X156753Y154109D01*
X155813Y154831D01*
X154718Y155284D01*
X153543Y155439D01*
X152369Y155284D01*
X151274Y154831D01*
X150334Y154109D01*
X149613Y153169D01*
X149159Y152075D01*
X149004Y150900D01*
X149159Y149725D01*
X149613Y148631D01*
X150334Y147691D01*
X150517Y147550D01*
Y120497D01*
X115971Y85950D01*
X115490Y85323D01*
X115187Y84593D01*
X115084Y83810D01*
Y49469D01*
X115187Y48686D01*
X115490Y47956D01*
X115971Y47329D01*
X118727Y44573D01*
X119353Y44092D01*
X120083Y43790D01*
X120866Y43687D01*
X129990D01*
Y38433D01*
X139994D01*
Y38687D01*
X142106D01*
X142889Y38790D01*
X143619Y39092D01*
X144246Y39573D01*
X145840Y41168D01*
X146321Y41794D01*
X146624Y42524D01*
X146727Y43307D01*
Y63707D01*
X162864Y79845D01*
X163318Y79665D01*
X163360Y79239D01*
X149160Y65040D01*
X148679Y64413D01*
X148377Y63683D01*
X148274Y62900D01*
Y41713D01*
X148377Y40929D01*
X148679Y40200D01*
X149160Y39573D01*
X149787Y39092D01*
X150517Y38790D01*
X151300Y38687D01*
X151345D01*
Y38433D01*
X161349D01*
Y43687D01*
X164874D01*
Y32221D01*
X164977Y31437D01*
X165279Y30708D01*
X165760Y30081D01*
X166265Y29576D01*
Y27240D01*
X165759Y26851D01*
X164965Y25817D01*
X164466Y24612D01*
X164296Y23319D01*
X164466Y22026D01*
X164965Y20821D01*
X165759Y19787D01*
X166794Y18993D01*
X167327Y18772D01*
X167228Y18272D01*
X164339D01*
Y8366D01*
X174244D01*
Y13993D01*
X177336Y17085D01*
X177817Y17712D01*
X178120Y18441D01*
X178223Y19225D01*
X178223Y19225D01*
Y23742D01*
X178687Y23927D01*
X187961Y14145D01*
Y8366D01*
X197866D01*
Y10293D01*
X209185D01*
X209607Y10349D01*
X209968Y10396D01*
X209968Y10396D01*
X209968Y10396D01*
X210299Y10533D01*
X210698Y10699D01*
X210698Y10699D01*
X210698Y10699D01*
X210929Y10876D01*
X211325Y11179D01*
X211531Y11386D01*
X214402D01*
Y11856D01*
X215096Y12143D01*
X215722Y12624D01*
X220644Y17545D01*
X221125Y18172D01*
X221427Y18902D01*
X221530Y19685D01*
X221530Y19685D01*
Y48563D01*
X221427Y49346D01*
X221125Y50076D01*
X220644Y50703D01*
X216706Y54640D01*
X216080Y55121D01*
X215350Y55423D01*
X214567Y55526D01*
X210561D01*
Y55780D01*
X209561D01*
Y57000D01*
X205559D01*
Y58000D01*
X209561D01*
Y59780D01*
X207516D01*
X207072Y60121D01*
X206342Y60423D01*
X205559Y60526D01*
X200800D01*
X200800Y60526D01*
X200017Y60423D01*
X199287Y60121D01*
X198660Y59640D01*
X194547Y55526D01*
X189207D01*
Y60780D01*
X188926D01*
Y108446D01*
X190453Y109974D01*
X227822D01*
X228099Y109558D01*
X227970Y109246D01*
X227800Y107953D01*
X227970Y106660D01*
X228469Y105455D01*
X229263Y104420D01*
X230297Y103626D01*
X231271Y103223D01*
Y102682D01*
X230297Y102279D01*
X229263Y101485D01*
X228469Y100450D01*
X227970Y99246D01*
X227800Y97953D01*
X227970Y96660D01*
X228469Y95455D01*
X229263Y94420D01*
X230297Y93626D01*
X231502Y93127D01*
X232795Y92957D01*
X234088Y93127D01*
X235293Y93626D01*
X235826Y94035D01*
X236274Y93814D01*
Y86921D01*
X227842D01*
Y77016D01*
X230732D01*
X230831Y76516D01*
X230297Y76295D01*
X229263Y75501D01*
X228469Y74466D01*
X227970Y73261D01*
X227800Y71969D01*
X227970Y70676D01*
X228469Y69471D01*
X229263Y68436D01*
X230297Y67642D01*
X231271Y67239D01*
Y66698D01*
X230297Y66295D01*
X229263Y65501D01*
X228469Y64466D01*
X227970Y63261D01*
X227800Y61969D01*
X227970Y60676D01*
X228071Y60432D01*
X228071Y60431D01*
X227703Y60013D01*
X227017Y59923D01*
X226287Y59620D01*
X225660Y59140D01*
X225180Y58513D01*
X224877Y57783D01*
X224774Y57000D01*
Y40350D01*
X224591Y40209D01*
X223869Y39269D01*
X223416Y38175D01*
X223261Y37000D01*
X223416Y35825D01*
X223869Y34731D01*
X224591Y33791D01*
X225531Y33069D01*
X226625Y32616D01*
X227800Y32461D01*
X227857Y32404D01*
X227800Y31969D01*
X227970Y30676D01*
X228469Y29471D01*
X229263Y28436D01*
X230297Y27642D01*
X231271Y27239D01*
Y26698D01*
X230297Y26295D01*
X229263Y25501D01*
X228469Y24466D01*
X227970Y23261D01*
X227800Y21969D01*
X227970Y20676D01*
X228469Y19471D01*
X229263Y18436D01*
X230297Y17642D01*
X231271Y17239D01*
Y16698D01*
X230297Y16295D01*
X229263Y15501D01*
X228469Y14466D01*
X227970Y13262D01*
X227800Y11969D01*
X227970Y10676D01*
X228469Y9471D01*
X229263Y8436D01*
X230297Y7642D01*
X231502Y7143D01*
X232795Y6973D01*
X234088Y7143D01*
X235293Y7642D01*
X236328Y8436D01*
X237121Y9471D01*
X237620Y10676D01*
X237791Y11969D01*
X237620Y13262D01*
X237121Y14466D01*
X236328Y15501D01*
X235293Y16295D01*
X234320Y16698D01*
Y17239D01*
X235293Y17642D01*
X236328Y18436D01*
X237121Y19471D01*
X237620Y20676D01*
X237791Y21969D01*
X237620Y23261D01*
X237121Y24466D01*
X236328Y25501D01*
X235293Y26295D01*
X234320Y26698D01*
Y27239D01*
X235293Y27642D01*
X236328Y28436D01*
X237121Y29471D01*
X237620Y30676D01*
X237791Y31969D01*
X237620Y33261D01*
X237121Y34466D01*
X236328Y35501D01*
X235293Y36295D01*
X234320Y36698D01*
Y37239D01*
X235293Y37642D01*
X236328Y38436D01*
X237121Y39471D01*
X237620Y40676D01*
X237791Y41969D01*
X237620Y43262D01*
X237121Y44466D01*
X236328Y45501D01*
X235293Y46295D01*
X234320Y46698D01*
Y47239D01*
X235293Y47642D01*
X236328Y48436D01*
X237121Y49471D01*
X237620Y50676D01*
X237791Y51969D01*
X237620Y53262D01*
X237369Y53867D01*
X237715Y54339D01*
X237813Y54379D01*
X238440Y54860D01*
X241440Y57860D01*
X241920Y58487D01*
X242223Y59217D01*
X242326Y60000D01*
Y103974D01*
X247815D01*
X248093Y103558D01*
X247970Y103261D01*
X247800Y101969D01*
X247970Y100676D01*
X248469Y99471D01*
X249263Y98436D01*
X250297Y97642D01*
X251271Y97239D01*
Y96698D01*
X250297Y96295D01*
X249263Y95501D01*
X248469Y94466D01*
X247970Y93261D01*
X247800Y91969D01*
X247970Y90676D01*
X248469Y89471D01*
X249263Y88436D01*
X250297Y87642D01*
X251271Y87239D01*
Y86698D01*
X250297Y86295D01*
X249263Y85501D01*
X248469Y84466D01*
X247970Y83262D01*
X247800Y81969D01*
X247970Y80676D01*
X248469Y79471D01*
X249263Y78436D01*
X250297Y77642D01*
X251271Y77239D01*
Y76698D01*
X250297Y76295D01*
X249263Y75501D01*
X248469Y74466D01*
X247970Y73261D01*
X247800Y71969D01*
X247970Y70676D01*
X248469Y69471D01*
X249263Y68436D01*
X250297Y67642D01*
X251271Y67239D01*
Y66698D01*
X250297Y66295D01*
X249263Y65501D01*
X248469Y64466D01*
X247970Y63261D01*
X247800Y61969D01*
X247970Y60676D01*
X248469Y59471D01*
X249263Y58436D01*
X250297Y57642D01*
X251271Y57239D01*
Y56698D01*
X250297Y56295D01*
X249263Y55501D01*
X248469Y54466D01*
X247970Y53262D01*
X247800Y51969D01*
X247970Y50676D01*
X248469Y49471D01*
X249263Y48436D01*
X250297Y47642D01*
X251271Y47239D01*
Y46698D01*
X250297Y46295D01*
X249263Y45501D01*
X248469Y44466D01*
X247970Y43262D01*
X247800Y41969D01*
X247970Y40676D01*
X248469Y39471D01*
X249263Y38436D01*
X250297Y37642D01*
X251271Y37239D01*
Y36698D01*
X250297Y36295D01*
X249263Y35501D01*
X248469Y34466D01*
X247970Y33261D01*
X247800Y31969D01*
X247970Y30676D01*
X248469Y29471D01*
X249263Y28436D01*
X250297Y27642D01*
X251271Y27239D01*
Y26698D01*
X250297Y26295D01*
X249263Y25501D01*
X248469Y24466D01*
X247970Y23261D01*
X247800Y21969D01*
X247970Y20676D01*
X248469Y19471D01*
X249263Y18436D01*
X250297Y17642D01*
X251271Y17239D01*
Y16698D01*
X250297Y16295D01*
X249263Y15501D01*
X248469Y14466D01*
X247970Y13262D01*
X247800Y11969D01*
X247970Y10676D01*
X248469Y9471D01*
X249263Y8436D01*
X250297Y7642D01*
X251502Y7143D01*
X252795Y6973D01*
X254088Y7143D01*
X255293Y7642D01*
X256328Y8436D01*
X257121Y9471D01*
X257525Y10444D01*
X258066D01*
X258469Y9471D01*
X259263Y8436D01*
X260297Y7642D01*
X261502Y7143D01*
X262795Y6973D01*
X264088Y7143D01*
X265293Y7642D01*
X266328Y8436D01*
X267121Y9471D01*
X267620Y10676D01*
X267791Y11969D01*
X267620Y13262D01*
X267121Y14466D01*
X266328Y15501D01*
X265293Y16295D01*
X264320Y16698D01*
Y17239D01*
X265293Y17642D01*
X266328Y18436D01*
X267121Y19471D01*
X267620Y20676D01*
X267791Y21969D01*
X267620Y23261D01*
X267121Y24466D01*
X266328Y25501D01*
X265293Y26295D01*
X264320Y26698D01*
Y27239D01*
X265293Y27642D01*
X266328Y28436D01*
X267121Y29471D01*
X267620Y30676D01*
X267791Y31969D01*
X267620Y33261D01*
X267121Y34466D01*
X266328Y35501D01*
X265293Y36295D01*
X264320Y36698D01*
Y37239D01*
X265293Y37642D01*
X266328Y38436D01*
X267121Y39471D01*
X267620Y40676D01*
X267791Y41969D01*
X267620Y43262D01*
X267121Y44466D01*
X266328Y45501D01*
X265293Y46295D01*
X264320Y46698D01*
Y47239D01*
X265293Y47642D01*
X266328Y48436D01*
X267121Y49471D01*
X267620Y50676D01*
X267791Y51969D01*
X267620Y53262D01*
X267121Y54466D01*
X266328Y55501D01*
X265293Y56295D01*
X264320Y56698D01*
Y57239D01*
X265293Y57642D01*
X266328Y58436D01*
X267121Y59471D01*
X267620Y60676D01*
X267791Y61969D01*
X267620Y63261D01*
X267121Y64466D01*
X266328Y65501D01*
X265293Y66295D01*
X264320Y66698D01*
Y67239D01*
X265293Y67642D01*
X266328Y68436D01*
X267121Y69471D01*
X267620Y70676D01*
X267791Y71969D01*
X267620Y73261D01*
X267121Y74466D01*
X266328Y75501D01*
X265293Y76295D01*
X264320Y76698D01*
Y77239D01*
X265293Y77642D01*
X266328Y78436D01*
X267121Y79471D01*
X267620Y80676D01*
X267791Y81969D01*
X267620Y83262D01*
X267121Y84466D01*
X266328Y85501D01*
X265293Y86295D01*
X264320Y86698D01*
Y87239D01*
X265293Y87642D01*
X266328Y88436D01*
X267121Y89471D01*
X267620Y90676D01*
X267791Y91969D01*
X267620Y93261D01*
X267121Y94466D01*
X266328Y95501D01*
X265293Y96295D01*
X264088Y96794D01*
X262795Y96964D01*
X261502Y96794D01*
X260297Y96295D01*
X259263Y95501D01*
X258469Y94466D01*
X258066Y93493D01*
X257525D01*
X257121Y94466D01*
X256328Y95501D01*
X255293Y96295D01*
X254320Y96698D01*
Y97239D01*
X255293Y97642D01*
X256328Y98436D01*
X257121Y99471D01*
X257621Y100676D01*
X257791Y101969D01*
X257621Y103261D01*
X257121Y104466D01*
X256938Y104706D01*
X257140Y104860D01*
X259940Y107660D01*
X260064Y107822D01*
X260297Y107642D01*
X261502Y107143D01*
X262795Y106973D01*
X264088Y107143D01*
X265293Y107642D01*
X266328Y108436D01*
X267121Y109471D01*
X267620Y110676D01*
X267791Y111969D01*
X267620Y113261D01*
X267121Y114466D01*
X266328Y115501D01*
X265293Y116295D01*
X264320Y116698D01*
Y117239D01*
X265293Y117642D01*
X266328Y118436D01*
X267121Y119471D01*
X267620Y120676D01*
X267791Y121969D01*
X267620Y123261D01*
X267121Y124466D01*
X266328Y125501D01*
X265293Y126295D01*
X264320Y126698D01*
Y127239D01*
X265293Y127642D01*
X266328Y128436D01*
X267121Y129471D01*
X267620Y130676D01*
X267791Y131969D01*
X267620Y133262D01*
X267121Y134466D01*
X266328Y135501D01*
X265293Y136295D01*
X264320Y136698D01*
Y137239D01*
X265293Y137642D01*
X266328Y138436D01*
X267121Y139471D01*
X267620Y140676D01*
X267791Y141969D01*
X267620Y143262D01*
X267121Y144466D01*
X266328Y145501D01*
X265293Y146295D01*
X264320Y146698D01*
Y147239D01*
X265293Y147642D01*
X266328Y148436D01*
X267121Y149471D01*
X267620Y150676D01*
X267791Y151969D01*
X267620Y153261D01*
X267121Y154466D01*
X266328Y155501D01*
X265293Y156295D01*
X264320Y156698D01*
Y157239D01*
X265293Y157642D01*
X266328Y158436D01*
X267121Y159471D01*
X267620Y160676D01*
X267791Y161969D01*
X267620Y163261D01*
X267121Y164466D01*
X266328Y165501D01*
X265293Y166295D01*
X264320Y166698D01*
Y167239D01*
X265293Y167642D01*
X266328Y168436D01*
X267121Y169471D01*
X267620Y170676D01*
X267791Y171969D01*
X267620Y173261D01*
X267121Y174466D01*
X266328Y175501D01*
X265293Y176295D01*
X264320Y176698D01*
Y177239D01*
X265293Y177642D01*
X266328Y178436D01*
X267121Y179471D01*
X267620Y180676D01*
X267791Y181969D01*
X267620Y183262D01*
X267121Y184466D01*
X266328Y185501D01*
X265293Y186295D01*
X264320Y186698D01*
Y187239D01*
X265293Y187642D01*
X266328Y188436D01*
X267121Y189471D01*
X267620Y190676D01*
X267791Y191969D01*
X267620Y193262D01*
X267121Y194466D01*
X266328Y195501D01*
X265293Y196295D01*
X264088Y196794D01*
X262795Y196964D01*
D02*
G37*
G36*
X22795D02*
X21502Y196794D01*
X20298Y196295D01*
X19263Y195501D01*
X18469Y194466D01*
X18248Y193933D01*
X17748Y194032D01*
Y196921D01*
X7842D01*
Y187016D01*
X10732D01*
X10831Y186516D01*
X10298Y186295D01*
X9263Y185501D01*
X8469Y184466D01*
X7970Y183262D01*
X7800Y181969D01*
X7970Y180676D01*
X8469Y179471D01*
X9263Y178436D01*
X10298Y177642D01*
X11271Y177239D01*
Y176698D01*
X10298Y176295D01*
X9263Y175501D01*
X8469Y174466D01*
X7970Y173261D01*
X7800Y171969D01*
X7970Y170676D01*
X8469Y169471D01*
X9263Y168436D01*
X10298Y167642D01*
X11271Y167239D01*
Y166698D01*
X10298Y166295D01*
X9263Y165501D01*
X8469Y164466D01*
X7970Y163261D01*
X7800Y161969D01*
X7970Y160676D01*
X8469Y159471D01*
X9263Y158436D01*
X10298Y157642D01*
X11271Y157239D01*
Y156698D01*
X10298Y156295D01*
X9263Y155501D01*
X8469Y154466D01*
X7970Y153261D01*
X7800Y151969D01*
X7970Y150676D01*
X8469Y149471D01*
X9263Y148436D01*
X10298Y147642D01*
X11271Y147239D01*
Y146698D01*
X10298Y146295D01*
X9263Y145501D01*
X8469Y144466D01*
X7970Y143262D01*
X7800Y141969D01*
X7970Y140676D01*
X8469Y139471D01*
X9263Y138436D01*
X10298Y137642D01*
X11271Y137239D01*
Y136698D01*
X10298Y136295D01*
X9263Y135501D01*
X8469Y134466D01*
X7970Y133262D01*
X7800Y131969D01*
X7970Y130676D01*
X8469Y129471D01*
X9263Y128436D01*
X10298Y127642D01*
X11271Y127239D01*
Y126698D01*
X10298Y126295D01*
X9263Y125501D01*
X8469Y124466D01*
X7970Y123261D01*
X7800Y121969D01*
X7970Y120676D01*
X8469Y119471D01*
X9263Y118436D01*
X10298Y117642D01*
X11271Y117239D01*
Y116698D01*
X10298Y116295D01*
X9263Y115501D01*
X8469Y114466D01*
X7970Y113261D01*
X7800Y111969D01*
X7970Y110676D01*
X8469Y109471D01*
X9263Y108436D01*
X10298Y107642D01*
X11502Y107143D01*
X12795Y106973D01*
X14088Y107143D01*
X15293Y107642D01*
X16328Y108436D01*
X17121Y109471D01*
X17525Y110444D01*
X18066D01*
X18469Y109471D01*
X19263Y108436D01*
X20298Y107642D01*
X21502Y107143D01*
X22795Y106973D01*
X24088Y107143D01*
X25293Y107642D01*
X26327Y108436D01*
X26674Y108888D01*
X27174Y108718D01*
Y102821D01*
X26674Y102789D01*
X26646Y103000D01*
X26248Y103962D01*
X25614Y104788D01*
X24789Y105421D01*
X23827Y105820D01*
X23295Y105890D01*
Y101969D01*
Y98048D01*
X23827Y98118D01*
X24789Y98516D01*
X25614Y99150D01*
X26248Y99975D01*
X26646Y100937D01*
X26674Y101149D01*
X27174Y101116D01*
Y92821D01*
X26674Y92789D01*
X26646Y93001D01*
X26248Y93962D01*
X25614Y94788D01*
X24789Y95421D01*
X23827Y95820D01*
X23295Y95890D01*
Y91969D01*
Y88048D01*
X23827Y88118D01*
X24789Y88516D01*
X25614Y89149D01*
X26248Y89975D01*
X26646Y90937D01*
X26674Y91149D01*
X27174Y91116D01*
Y85219D01*
X26674Y85049D01*
X26327Y85501D01*
X25293Y86295D01*
X24088Y86794D01*
X22795Y86964D01*
X21502Y86794D01*
X20298Y86295D01*
X19263Y85501D01*
X18469Y84466D01*
X18066Y83493D01*
X17525D01*
X17121Y84466D01*
X16328Y85501D01*
X15293Y86295D01*
X14320Y86698D01*
Y87239D01*
X15293Y87642D01*
X16328Y88436D01*
X17121Y89471D01*
X17620Y90676D01*
X17791Y91969D01*
X17620Y93261D01*
X17121Y94466D01*
X16328Y95501D01*
X15293Y96295D01*
X14088Y96794D01*
X12795Y96964D01*
X11502Y96794D01*
X10298Y96295D01*
X9263Y95501D01*
X8469Y94466D01*
X7970Y93261D01*
X7800Y91969D01*
X7970Y90676D01*
X8469Y89471D01*
X9263Y88436D01*
X10298Y87642D01*
X11271Y87239D01*
Y86698D01*
X10298Y86295D01*
X9263Y85501D01*
X8469Y84466D01*
X7970Y83262D01*
X7800Y81969D01*
X7970Y80676D01*
X8469Y79471D01*
X9263Y78436D01*
X10298Y77642D01*
X11271Y77239D01*
Y76698D01*
X10298Y76295D01*
X9263Y75501D01*
X8469Y74466D01*
X7970Y73261D01*
X7800Y71969D01*
X7970Y70676D01*
X8469Y69471D01*
X9263Y68436D01*
X10298Y67642D01*
X11271Y67239D01*
Y66698D01*
X10298Y66295D01*
X9263Y65501D01*
X8469Y64466D01*
X7970Y63261D01*
X7800Y61969D01*
X7970Y60676D01*
X8469Y59471D01*
X9263Y58436D01*
X10298Y57642D01*
X11271Y57239D01*
Y56698D01*
X10298Y56295D01*
X9263Y55501D01*
X8469Y54466D01*
X7970Y53262D01*
X7800Y51969D01*
X7970Y50676D01*
X8469Y49471D01*
X9263Y48436D01*
X10298Y47642D01*
X11271Y47239D01*
Y46698D01*
X10298Y46295D01*
X9263Y45501D01*
X8469Y44466D01*
X7970Y43262D01*
X7800Y41969D01*
X7970Y40676D01*
X8469Y39471D01*
X9263Y38436D01*
X10298Y37642D01*
X11271Y37239D01*
Y36698D01*
X10298Y36295D01*
X9263Y35501D01*
X8469Y34466D01*
X7970Y33261D01*
X7800Y31969D01*
X7970Y30676D01*
X8469Y29471D01*
X9263Y28436D01*
X10298Y27642D01*
X11271Y27239D01*
Y26698D01*
X10298Y26295D01*
X9263Y25501D01*
X8469Y24466D01*
X7970Y23261D01*
X7800Y21969D01*
X7970Y20676D01*
X8469Y19471D01*
X9263Y18436D01*
X10298Y17642D01*
X11271Y17239D01*
Y16698D01*
X10298Y16295D01*
X9263Y15501D01*
X8469Y14466D01*
X7970Y13262D01*
X7800Y11969D01*
X7970Y10676D01*
X8469Y9471D01*
X9263Y8436D01*
X10298Y7642D01*
X11502Y7143D01*
X12795Y6973D01*
X14088Y7143D01*
X15293Y7642D01*
X16328Y8436D01*
X17121Y9471D01*
X17525Y10444D01*
X18066D01*
X18469Y9471D01*
X19263Y8436D01*
X20298Y7642D01*
X21502Y7143D01*
X22795Y6973D01*
X24088Y7143D01*
X25293Y7642D01*
X26327Y8436D01*
X27121Y9471D01*
X27621Y10676D01*
X27791Y11969D01*
X27621Y13262D01*
X27121Y14466D01*
X26327Y15501D01*
X25293Y16295D01*
X24320Y16698D01*
Y17239D01*
X25293Y17642D01*
X26327Y18436D01*
X27121Y19471D01*
X27621Y20676D01*
X27791Y21969D01*
X27707Y22602D01*
X37360Y32254D01*
X37808Y32033D01*
X37800Y31969D01*
X37970Y30676D01*
X38469Y29471D01*
X39263Y28436D01*
X40297Y27642D01*
X41271Y27239D01*
Y26698D01*
X40297Y26295D01*
X39263Y25501D01*
X38469Y24466D01*
X37970Y23261D01*
X37800Y21969D01*
X37970Y20676D01*
X38469Y19471D01*
X39263Y18436D01*
X40297Y17642D01*
X41271Y17239D01*
Y16698D01*
X40297Y16295D01*
X39263Y15501D01*
X38469Y14466D01*
X37970Y13262D01*
X37800Y11969D01*
X37970Y10676D01*
X38469Y9471D01*
X39263Y8436D01*
X40297Y7642D01*
X41502Y7143D01*
X42795Y6973D01*
X44088Y7143D01*
X45293Y7642D01*
X46327Y8436D01*
X47121Y9471D01*
X47620Y10676D01*
X47791Y11969D01*
X47620Y13262D01*
X47121Y14466D01*
X46327Y15501D01*
X45293Y16295D01*
X44320Y16698D01*
Y17239D01*
X45293Y17642D01*
X46327Y18436D01*
X47121Y19471D01*
X47620Y20676D01*
X47791Y21969D01*
X47620Y23261D01*
X47121Y24466D01*
X46327Y25501D01*
X45293Y26295D01*
X44320Y26698D01*
Y27239D01*
X45293Y27642D01*
X46327Y28436D01*
X47121Y29471D01*
X47620Y30676D01*
X47791Y31969D01*
X47620Y33261D01*
X47121Y34466D01*
X46327Y35501D01*
X45293Y36295D01*
X44320Y36698D01*
Y37239D01*
X45293Y37642D01*
X46327Y38436D01*
X47121Y39471D01*
X47620Y40676D01*
X47791Y41969D01*
X47620Y43262D01*
X47121Y44466D01*
X46327Y45501D01*
X45293Y46295D01*
X44320Y46698D01*
Y47239D01*
X45293Y47642D01*
X46327Y48436D01*
X47121Y49471D01*
X47620Y50676D01*
X47791Y51969D01*
X47620Y53262D01*
X47121Y54466D01*
X46327Y55501D01*
X45293Y56295D01*
X44759Y56516D01*
X44859Y57016D01*
X47748D01*
Y66921D01*
X40826D01*
Y76973D01*
X41242Y77251D01*
X41502Y77143D01*
X42795Y76973D01*
X44088Y77143D01*
X45293Y77642D01*
X46327Y78436D01*
X47121Y79471D01*
X47620Y80676D01*
X47791Y81969D01*
X47620Y83262D01*
X47121Y84466D01*
X46327Y85501D01*
X45293Y86295D01*
X44088Y86794D01*
X42795Y86964D01*
X41502Y86794D01*
X41242Y86686D01*
X40826Y86964D01*
Y88056D01*
X41242Y88334D01*
X41763Y88118D01*
X42295Y88048D01*
Y91969D01*
Y95890D01*
X41763Y95820D01*
X41242Y95604D01*
X40826Y95881D01*
Y98056D01*
X41242Y98334D01*
X41763Y98118D01*
X42295Y98048D01*
Y101969D01*
X43295D01*
Y98048D01*
X43827Y98118D01*
X44789Y98516D01*
X45614Y99150D01*
X46248Y99975D01*
X46646Y100937D01*
X46736Y101616D01*
X47264Y101795D01*
X47405Y101653D01*
X48032Y101172D01*
X48762Y100870D01*
X49545Y100767D01*
X63429D01*
X64213Y100870D01*
X64942Y101172D01*
X65569Y101653D01*
X71658Y107742D01*
X71658Y107742D01*
X72139Y108369D01*
X72441Y109098D01*
X72544Y109881D01*
Y121065D01*
X73692Y122213D01*
X79461D01*
Y126543D01*
Y130874D01*
Y137630D01*
X70343D01*
Y137278D01*
X63753D01*
X61892Y139140D01*
X61265Y139620D01*
X60535Y139923D01*
X59752Y140026D01*
X47801D01*
X47523Y140442D01*
X47620Y140676D01*
X47791Y141969D01*
X47620Y143262D01*
X47121Y144466D01*
X46327Y145501D01*
X45293Y146295D01*
X44759Y146516D01*
X44859Y147016D01*
X47748D01*
Y156921D01*
X37843D01*
Y147016D01*
X40732D01*
X40831Y146516D01*
X40297Y146295D01*
X39263Y145501D01*
X38469Y144466D01*
X37970Y143262D01*
X37800Y141969D01*
X37970Y140676D01*
X38067Y140442D01*
X37789Y140026D01*
X32800D01*
X32800Y140026D01*
X32017Y139923D01*
X31287Y139620D01*
X30660Y139140D01*
X30660Y139140D01*
X28060Y136540D01*
X27580Y135913D01*
X27277Y135183D01*
X27266Y135099D01*
X26743Y134959D01*
X26327Y135501D01*
X25293Y136295D01*
X24320Y136698D01*
Y137239D01*
X25293Y137642D01*
X26327Y138436D01*
X27121Y139471D01*
X27621Y140676D01*
X27791Y141969D01*
X27621Y143262D01*
X27121Y144466D01*
X26327Y145501D01*
X25293Y146295D01*
X24320Y146698D01*
Y147239D01*
X25293Y147642D01*
X26327Y148436D01*
X27121Y149471D01*
X27621Y150676D01*
X27791Y151969D01*
X27621Y153261D01*
X27121Y154466D01*
X26327Y155501D01*
X25293Y156295D01*
X24088Y156794D01*
X22795Y156964D01*
X21502Y156794D01*
X20298Y156295D01*
X19263Y155501D01*
X18469Y154466D01*
X18066Y153493D01*
X17525D01*
X17121Y154466D01*
X16328Y155501D01*
X15293Y156295D01*
X14320Y156698D01*
Y157239D01*
X15293Y157642D01*
X16328Y158436D01*
X17121Y159471D01*
X17620Y160676D01*
X17791Y161969D01*
X17620Y163261D01*
X17121Y164466D01*
X16328Y165501D01*
X15293Y166295D01*
X14320Y166698D01*
Y167239D01*
X15293Y167642D01*
X16328Y168436D01*
X17121Y169471D01*
X17525Y170444D01*
X18066D01*
X18469Y169471D01*
X19263Y168436D01*
X20298Y167642D01*
X21502Y167143D01*
X22795Y166973D01*
X24088Y167143D01*
X25293Y167642D01*
X26327Y168436D01*
X27121Y169471D01*
X27621Y170676D01*
X27791Y171969D01*
X27621Y173261D01*
X27121Y174466D01*
X26327Y175501D01*
X25293Y176295D01*
X24320Y176698D01*
Y177239D01*
X25293Y177642D01*
X26327Y178436D01*
X27121Y179471D01*
X27621Y180676D01*
X27791Y181969D01*
X27621Y183262D01*
X27121Y184466D01*
X26327Y185501D01*
X25293Y186295D01*
X24320Y186698D01*
Y187239D01*
X25293Y187642D01*
X26327Y188436D01*
X27121Y189471D01*
X27621Y190676D01*
X27791Y191969D01*
X27621Y193262D01*
X27121Y194466D01*
X26327Y195501D01*
X25293Y196295D01*
X24088Y196794D01*
X22795Y196964D01*
D02*
G37*
G36*
X169275Y166823D02*
X165854D01*
Y163402D01*
X166386Y163472D01*
X167348Y163870D01*
X168174Y164504D01*
X168807Y165329D01*
X169205Y166291D01*
X169275Y166823D01*
D02*
G37*
G36*
X164854D02*
X161433D01*
X161503Y166291D01*
X161902Y165329D01*
X162535Y164504D01*
X163361Y163870D01*
X164322Y163472D01*
X164854Y163402D01*
Y166823D01*
D02*
G37*
G36*
X196350Y166744D02*
X192929D01*
X192999Y166212D01*
X193398Y165251D01*
X194031Y164425D01*
X194857Y163792D01*
X195818Y163393D01*
X196350Y163323D01*
Y166744D01*
D02*
G37*
G36*
X237748Y192905D02*
X227842D01*
Y183000D01*
X230732D01*
X230831Y182500D01*
X230297Y182279D01*
X229263Y181485D01*
X228469Y180450D01*
X227970Y179245D01*
X227800Y177953D01*
X227970Y176660D01*
X228469Y175455D01*
X229263Y174420D01*
X230297Y173626D01*
X231271Y173223D01*
Y172682D01*
X230297Y172279D01*
X229263Y171485D01*
X228469Y170450D01*
X227970Y169246D01*
X227800Y167953D01*
X227970Y166660D01*
X228469Y165455D01*
X229263Y164420D01*
X230297Y163626D01*
X231502Y163127D01*
X232795Y162957D01*
X234088Y163127D01*
X235293Y163626D01*
X236328Y164420D01*
X237121Y165455D01*
X237620Y166660D01*
X237791Y167953D01*
X237620Y169246D01*
X237121Y170450D01*
X236328Y171485D01*
X235293Y172279D01*
X234320Y172682D01*
Y173223D01*
X235293Y173626D01*
X236328Y174420D01*
X237121Y175455D01*
X237620Y176660D01*
X237791Y177953D01*
X237620Y179245D01*
X237121Y180450D01*
X236328Y181485D01*
X235293Y182279D01*
X234759Y182500D01*
X234859Y183000D01*
X237748D01*
Y192905D01*
D02*
G37*
G36*
X23295Y165890D02*
Y162469D01*
X26716D01*
X26646Y163001D01*
X26248Y163962D01*
X25614Y164788D01*
X24789Y165421D01*
X23827Y165820D01*
X23295Y165890D01*
D02*
G37*
G36*
X22295D02*
X21763Y165820D01*
X20802Y165421D01*
X19976Y164788D01*
X19342Y163962D01*
X18944Y163001D01*
X18874Y162469D01*
X22295D01*
Y165890D01*
D02*
G37*
G36*
X233295Y161874D02*
Y158453D01*
X236716D01*
X236646Y158984D01*
X236248Y159946D01*
X235614Y160772D01*
X234789Y161405D01*
X233827Y161804D01*
X233295Y161874D01*
D02*
G37*
G36*
X232295D02*
X231763Y161804D01*
X230802Y161405D01*
X229976Y160772D01*
X229343Y159946D01*
X228944Y158984D01*
X228874Y158453D01*
X232295D01*
Y161874D01*
D02*
G37*
G36*
X26716Y161469D02*
X23295D01*
Y158048D01*
X23827Y158118D01*
X24789Y158516D01*
X25614Y159150D01*
X26248Y159975D01*
X26646Y160937D01*
X26716Y161469D01*
D02*
G37*
G36*
X22295D02*
X18874D01*
X18944Y160937D01*
X19342Y159975D01*
X19976Y159150D01*
X20802Y158516D01*
X21763Y158118D01*
X22295Y158048D01*
Y161469D01*
D02*
G37*
G36*
X236716Y157453D02*
X233295D01*
Y154032D01*
X233827Y154102D01*
X234789Y154500D01*
X235614Y155133D01*
X236248Y155959D01*
X236646Y156921D01*
X236716Y157453D01*
D02*
G37*
G36*
X232295D02*
X228874D01*
X228944Y156921D01*
X229343Y155959D01*
X229976Y155133D01*
X230802Y154500D01*
X231763Y154102D01*
X232295Y154032D01*
Y157453D01*
D02*
G37*
G36*
X253295Y155890D02*
Y152469D01*
X256716D01*
X256646Y153000D01*
X256248Y153962D01*
X255614Y154788D01*
X254789Y155421D01*
X253827Y155820D01*
X253295Y155890D01*
D02*
G37*
G36*
X252295D02*
X251763Y155820D01*
X250802Y155421D01*
X249976Y154788D01*
X249342Y153962D01*
X248944Y153000D01*
X248874Y152469D01*
X252295D01*
Y155890D01*
D02*
G37*
G36*
X104756Y138024D02*
X98000D01*
Y137278D01*
X91075D01*
Y137630D01*
X81957D01*
Y130874D01*
Y126543D01*
Y122213D01*
X91075D01*
Y122565D01*
X123591D01*
Y121819D01*
X130347D01*
Y122381D01*
X130496Y122819D01*
X130847Y122819D01*
X132374D01*
Y125591D01*
Y128362D01*
X130496Y128362D01*
X130347Y128800D01*
Y129362D01*
X123591D01*
Y128616D01*
X122457D01*
Y129421D01*
X120079D01*
Y129921D01*
X119579D01*
Y132693D01*
X117701D01*
X117551Y133131D01*
Y133693D01*
X110795D01*
Y132947D01*
X109661D01*
Y133752D01*
X107283D01*
Y134252D01*
X106783D01*
Y137024D01*
X104905D01*
X104756Y137462D01*
Y138024D01*
D02*
G37*
G36*
X107783Y137024D02*
Y134752D01*
X109661D01*
Y137024D01*
X107783D01*
D02*
G37*
G36*
X120579Y132693D02*
Y130421D01*
X122457D01*
Y132693D01*
X120579D01*
D02*
G37*
G36*
X133374Y128362D02*
Y126091D01*
X135252D01*
Y128362D01*
X133374D01*
D02*
G37*
G36*
X135252Y125091D02*
X133374D01*
Y122819D01*
X135252D01*
Y125091D01*
D02*
G37*
G36*
X263295Y105890D02*
Y102469D01*
X266716D01*
X266646Y103000D01*
X266248Y103962D01*
X265614Y104788D01*
X264789Y105421D01*
X263827Y105820D01*
X263295Y105890D01*
D02*
G37*
G36*
X13295D02*
Y102469D01*
X16716D01*
X16646Y103000D01*
X16248Y103962D01*
X15614Y104788D01*
X14789Y105421D01*
X13827Y105820D01*
X13295Y105890D01*
D02*
G37*
G36*
X262295D02*
X261763Y105820D01*
X260802Y105421D01*
X259976Y104788D01*
X259343Y103962D01*
X258944Y103000D01*
X258874Y102469D01*
X262295D01*
Y105890D01*
D02*
G37*
G36*
X22295D02*
X21763Y105820D01*
X20802Y105421D01*
X19976Y104788D01*
X19342Y103962D01*
X18944Y103000D01*
X18874Y102469D01*
X22295D01*
Y105890D01*
D02*
G37*
G36*
X12295D02*
X11763Y105820D01*
X10802Y105421D01*
X9976Y104788D01*
X9342Y103962D01*
X8944Y103000D01*
X8874Y102469D01*
X12295D01*
Y105890D01*
D02*
G37*
G36*
X266716Y101469D02*
X263295D01*
Y98048D01*
X263827Y98118D01*
X264789Y98516D01*
X265614Y99150D01*
X266248Y99975D01*
X266646Y100937D01*
X266716Y101469D01*
D02*
G37*
G36*
X16716D02*
X13295D01*
Y98048D01*
X13827Y98118D01*
X14789Y98516D01*
X15614Y99150D01*
X16248Y99975D01*
X16646Y100937D01*
X16716Y101469D01*
D02*
G37*
G36*
X262295D02*
X258874D01*
X258944Y100937D01*
X259343Y99975D01*
X259976Y99150D01*
X260802Y98516D01*
X261763Y98118D01*
X262295Y98048D01*
Y101469D01*
D02*
G37*
G36*
X22295D02*
X18874D01*
X18944Y100937D01*
X19342Y99975D01*
X19976Y99150D01*
X20802Y98516D01*
X21763Y98118D01*
X22295Y98048D01*
Y101469D01*
D02*
G37*
G36*
X12295D02*
X8874D01*
X8944Y100937D01*
X9342Y99975D01*
X9976Y99150D01*
X10802Y98516D01*
X11763Y98118D01*
X12295Y98048D01*
Y101469D01*
D02*
G37*
G36*
X43295Y95890D02*
Y92469D01*
X46716D01*
X46646Y93001D01*
X46248Y93962D01*
X45614Y94788D01*
X44789Y95421D01*
X43827Y95820D01*
X43295Y95890D01*
D02*
G37*
G36*
X22295D02*
X21763Y95820D01*
X20802Y95421D01*
X19976Y94788D01*
X19342Y93962D01*
X18944Y93001D01*
X18874Y92469D01*
X22295D01*
Y95890D01*
D02*
G37*
G36*
X46716Y91469D02*
X43295D01*
Y88048D01*
X43827Y88118D01*
X44789Y88516D01*
X45614Y89149D01*
X46248Y89975D01*
X46646Y90937D01*
X46716Y91469D01*
D02*
G37*
G36*
X22295D02*
X18874D01*
X18944Y90937D01*
X19342Y89975D01*
X19976Y89149D01*
X20802Y88516D01*
X21763Y88118D01*
X22295Y88048D01*
Y91469D01*
D02*
G37*
G36*
X138295Y90480D02*
Y87516D01*
X141260D01*
X141205Y87929D01*
X140852Y88781D01*
X140292Y89512D01*
X139560Y90073D01*
X138709Y90426D01*
X138295Y90480D01*
D02*
G37*
G36*
X137295D02*
X136882Y90426D01*
X136030Y90073D01*
X135299Y89512D01*
X134738Y88781D01*
X134385Y87929D01*
X134331Y87516D01*
X137295D01*
Y90480D01*
D02*
G37*
G36*
X141260Y86516D02*
X138295D01*
Y83552D01*
X138709Y83606D01*
X139560Y83959D01*
X140292Y84520D01*
X140852Y85251D01*
X141205Y86102D01*
X141260Y86516D01*
D02*
G37*
G36*
X137295D02*
X134331D01*
X134385Y86102D01*
X134738Y85251D01*
X135299Y84520D01*
X136030Y83959D01*
X136882Y83606D01*
X137295Y83552D01*
Y86516D01*
D02*
G37*
G36*
X118110Y26649D02*
X116817Y26479D01*
X115612Y25980D01*
X114578Y25186D01*
X113784Y24151D01*
X113563Y23618D01*
X113063Y23717D01*
Y26606D01*
X103157D01*
Y16701D01*
X113063D01*
Y19590D01*
X113563Y19690D01*
X113784Y19156D01*
X114578Y18121D01*
X115612Y17327D01*
X116817Y16828D01*
X118110Y16658D01*
X119403Y16828D01*
X120608Y17327D01*
X121642Y18121D01*
X122436Y19156D01*
X122935Y20361D01*
X123106Y21654D01*
X122935Y22946D01*
X122436Y24151D01*
X121642Y25186D01*
X120608Y25980D01*
X119403Y26479D01*
X118110Y26649D01*
D02*
G37*
G36*
X70866D02*
X69573Y26479D01*
X68369Y25980D01*
X67334Y25186D01*
X66540Y24151D01*
X66041Y22946D01*
X65871Y21654D01*
X66041Y20361D01*
X66540Y19156D01*
X67334Y18121D01*
X68369Y17327D01*
X69573Y16828D01*
X70866Y16658D01*
X72159Y16828D01*
X73364Y17327D01*
X74398Y18121D01*
X75192Y19156D01*
X75414Y19690D01*
X75914Y19590D01*
Y16701D01*
X85819D01*
Y26606D01*
X75914D01*
Y23717D01*
X75414Y23618D01*
X75192Y24151D01*
X74398Y25186D01*
X73364Y25980D01*
X72159Y26479D01*
X70866Y26649D01*
D02*
G37*
%LPD*%
G36*
X247943Y143057D02*
X247800Y141969D01*
X247970Y140676D01*
X248469Y139471D01*
X249263Y138436D01*
X250297Y137642D01*
X251271Y137239D01*
Y136698D01*
X250297Y136295D01*
X249263Y135501D01*
X248469Y134466D01*
X247970Y133262D01*
X247800Y131969D01*
X247970Y130676D01*
X248469Y129471D01*
X249263Y128436D01*
X250297Y127642D01*
X251271Y127239D01*
Y126698D01*
X250297Y126295D01*
X249263Y125501D01*
X248469Y124466D01*
X247970Y123261D01*
X247800Y121969D01*
X247970Y120676D01*
X248469Y119471D01*
X249263Y118436D01*
X250297Y117642D01*
X251271Y117239D01*
Y116698D01*
X250297Y116295D01*
X249263Y115501D01*
X248469Y114466D01*
X247970Y113261D01*
X247800Y111969D01*
X247970Y110676D01*
X248067Y110442D01*
X247789Y110026D01*
X239600D01*
X238817Y109923D01*
X238087Y109620D01*
X238026Y109573D01*
X237439Y109684D01*
X237121Y110450D01*
X236930Y110699D01*
X237140Y110860D01*
X239940Y113660D01*
X240421Y114287D01*
X240723Y115017D01*
X240774Y115408D01*
X240826Y115800D01*
X240826Y115800D01*
Y136647D01*
X247469Y143290D01*
X247943Y143057D01*
D02*
G37*
G36*
X170874Y147524D02*
Y76196D01*
X170374Y75954D01*
X169674Y76245D01*
X169459Y76273D01*
X169149Y76783D01*
X169157Y76817D01*
X169323Y77217D01*
X169426Y78000D01*
Y148319D01*
X169888Y148510D01*
X170874Y147524D01*
D02*
G37*
G36*
X169260Y69370D02*
X169674Y69425D01*
X170374Y69715D01*
X170874Y69473D01*
Y54437D01*
X170426Y54216D01*
X170273Y54333D01*
X169543Y54635D01*
X168760Y54738D01*
X161349D01*
Y54992D01*
X160349D01*
Y56213D01*
X156347D01*
Y56713D01*
X155847D01*
Y58992D01*
X154326D01*
Y61647D01*
X164863Y72184D01*
X165337Y72023D01*
X165350Y71921D01*
X165703Y71070D01*
X166264Y70338D01*
X166995Y69777D01*
X167846Y69425D01*
X168260Y69370D01*
Y72835D01*
X169260D01*
Y69370D01*
D02*
G37*
G36*
X227883Y128586D02*
X227800Y127953D01*
X227970Y126660D01*
X228469Y125455D01*
X229263Y124420D01*
X230297Y123626D01*
X231271Y123223D01*
Y122682D01*
X230297Y122279D01*
X229263Y121485D01*
X228469Y120450D01*
X227970Y119246D01*
X227800Y117953D01*
X227970Y116660D01*
X228060Y116441D01*
X227783Y116026D01*
X189200D01*
X188417Y115923D01*
X187687Y115620D01*
X187060Y115139D01*
X187060Y115139D01*
X183760Y111839D01*
X183280Y111213D01*
X182977Y110483D01*
X182874Y109700D01*
Y60780D01*
X180191D01*
Y136306D01*
X196177Y152292D01*
X201803D01*
Y154012D01*
X202265Y154203D01*
X227883Y128586D01*
D02*
G37*
G36*
X200557Y52325D02*
Y49221D01*
Y45526D01*
X197900D01*
X197117Y45423D01*
X196387Y45121D01*
X195761Y44640D01*
X192447Y41326D01*
X189207D01*
Y44221D01*
Y49474D01*
X195800D01*
X196583Y49577D01*
X197313Y49880D01*
X197940Y50361D01*
X200095Y52516D01*
X200557Y52325D01*
D02*
G37*
G36*
Y39221D02*
X209769D01*
Y26317D01*
X209279Y26028D01*
X208763Y26242D01*
X207980Y26345D01*
X196834D01*
X196446Y26851D01*
X195411Y27645D01*
X194206Y28144D01*
X192913Y28315D01*
X191621Y28144D01*
X190416Y27645D01*
X189381Y26851D01*
X188587Y25817D01*
X188088Y24612D01*
X187963Y23665D01*
X187437Y23494D01*
X177393Y34088D01*
X177361Y34114D01*
X177336Y34146D01*
X176671Y34812D01*
X176862Y35274D01*
X193700D01*
X194483Y35377D01*
X195213Y35680D01*
X195840Y36160D01*
X199154Y39474D01*
X200557D01*
Y39221D01*
D02*
G37*
G36*
X206858Y20162D02*
Y16345D01*
X197866D01*
Y18272D01*
X194977D01*
X194878Y18772D01*
X195411Y18993D01*
X196446Y19787D01*
X196834Y20293D01*
X206727D01*
X206858Y20162D01*
D02*
G37*
%LPC*%
G36*
X160349Y58992D02*
X156847D01*
Y57213D01*
X160349D01*
Y58992D01*
D02*
G37*
%LPD*%
G36*
X60360Y132112D02*
X60987Y131632D01*
X61717Y131329D01*
X62500Y131226D01*
X66994D01*
X67185Y130764D01*
X51860Y115440D01*
X51380Y114813D01*
X51077Y114083D01*
X50974Y113300D01*
Y111650D01*
X50791Y111509D01*
X50069Y110569D01*
X49616Y109475D01*
X49527Y108797D01*
X48999Y108618D01*
X48477Y109140D01*
X47850Y109620D01*
X47743Y109665D01*
X47387Y110113D01*
X47620Y110676D01*
X47791Y111969D01*
X47620Y113261D01*
X47121Y114466D01*
X46327Y115501D01*
X45293Y116295D01*
X44320Y116698D01*
Y117239D01*
X45293Y117642D01*
X46327Y118436D01*
X47121Y119471D01*
X47620Y120676D01*
X47791Y121969D01*
X47620Y123261D01*
X47121Y124466D01*
X46327Y125501D01*
X45293Y126295D01*
X44320Y126698D01*
Y127239D01*
X45293Y127642D01*
X46327Y128436D01*
X47121Y129471D01*
X47620Y130676D01*
X47791Y131969D01*
X47620Y133262D01*
X47497Y133558D01*
X47775Y133974D01*
X58499D01*
X60360Y132112D01*
D02*
G37*
G36*
X66492Y120860D02*
Y111135D01*
X62176Y106818D01*
X58741D01*
X58410Y107318D01*
X58539Y108300D01*
X58384Y109475D01*
X57931Y110569D01*
X57209Y111509D01*
X57114Y111583D01*
X57091Y112111D01*
X66030Y121051D01*
X66492Y120860D01*
D02*
G37*
G36*
X38093Y133558D02*
X37970Y133262D01*
X37800Y131969D01*
X37970Y130676D01*
X38469Y129471D01*
X39263Y128436D01*
X40297Y127642D01*
X41271Y127239D01*
Y126698D01*
X40297Y126295D01*
X39263Y125501D01*
X38469Y124466D01*
X37970Y123261D01*
X37800Y121969D01*
X37970Y120676D01*
X38469Y119471D01*
X39263Y118436D01*
X40297Y117642D01*
X41271Y117239D01*
Y116698D01*
X40297Y116295D01*
X39263Y115501D01*
X38469Y114466D01*
X37970Y113261D01*
X37800Y111969D01*
X37970Y110676D01*
X38071Y110432D01*
X38071Y110431D01*
X37703Y110013D01*
X37017Y109923D01*
X36287Y109620D01*
X35660Y109140D01*
X35179Y108513D01*
X34877Y107783D01*
X34774Y107000D01*
Y38227D01*
X28231Y31683D01*
X27782Y31905D01*
X27791Y31969D01*
X27621Y33261D01*
X27121Y34466D01*
X26327Y35501D01*
X25293Y36295D01*
X24320Y36698D01*
Y37239D01*
X25293Y37642D01*
X26327Y38436D01*
X27121Y39471D01*
X27621Y40676D01*
X27791Y41969D01*
X27621Y43262D01*
X27121Y44466D01*
X26327Y45501D01*
X25293Y46295D01*
X24320Y46698D01*
Y47239D01*
X25293Y47642D01*
X26327Y48436D01*
X27121Y49471D01*
X27621Y50676D01*
X27791Y51969D01*
X27621Y53262D01*
X27121Y54466D01*
X26327Y55501D01*
X25293Y56295D01*
X24320Y56698D01*
Y57239D01*
X25293Y57642D01*
X26327Y58436D01*
X27121Y59471D01*
X27621Y60676D01*
X27791Y61969D01*
X27621Y63261D01*
X27121Y64466D01*
X26938Y64706D01*
X27140Y64860D01*
X32340Y70060D01*
X32820Y70687D01*
X33123Y71417D01*
X33226Y72200D01*
Y133147D01*
X34053Y133974D01*
X37815D01*
X38093Y133558D01*
D02*
G37*
D14*
X156347Y56713D02*
D03*
Y51713D02*
D03*
Y46713D02*
D03*
Y41713D02*
D03*
X134992D02*
D03*
Y46713D02*
D03*
Y51713D02*
D03*
Y56713D02*
D03*
X205559Y57500D02*
D03*
Y52500D02*
D03*
Y47500D02*
D03*
Y42500D02*
D03*
X184205D02*
D03*
Y47500D02*
D03*
Y52500D02*
D03*
Y57500D02*
D03*
D15*
X210630Y20669D02*
D03*
Y14764D02*
D03*
D16*
X74902Y125591D02*
D03*
Y129921D02*
D03*
Y134252D02*
D03*
X86516Y125591D02*
D03*
Y129921D02*
D03*
Y134252D02*
D03*
D17*
X101378D02*
D03*
X107283D02*
D03*
X114173Y129921D02*
D03*
X120079D02*
D03*
X126969Y125591D02*
D03*
X132874D02*
D03*
D26*
X118110Y83810D02*
X153543Y119243D01*
Y150900D01*
X177165Y49798D02*
Y137559D01*
Y49798D02*
X179463Y47500D01*
X184205D01*
X177165Y137559D02*
X196850Y157244D01*
X120866Y46713D02*
X134992D01*
X118110Y49469D02*
X120866Y46713D01*
X118110Y49469D02*
Y83810D01*
X134992Y41713D02*
X142106D01*
X143701Y43307D01*
Y64961D01*
X161417Y82677D01*
Y91969D01*
X151417Y80551D02*
Y91969D01*
X134992Y64126D02*
X151417Y80551D01*
X134992Y56713D02*
Y64126D01*
X178400Y42800D02*
X184205D01*
X185900Y57500D02*
Y109700D01*
X166400Y156277D02*
X173900Y148777D01*
X165354Y157323D02*
X166400Y156277D01*
Y157323D01*
Y78000D02*
Y156277D01*
X168760Y51713D02*
X170900Y49572D01*
Y36303D02*
X175197Y32007D01*
X192913Y13319D01*
X205559Y52500D02*
X214567D01*
X218504Y48563D01*
Y19685D02*
Y48563D01*
X213583Y14764D02*
X218504Y19685D01*
X210630Y14764D02*
X213583D01*
X192913Y23319D02*
X207980D01*
X210630Y20669D01*
X212795Y22835D01*
Y45000D01*
X210295Y47500D02*
X212795Y45000D01*
X205559Y47500D02*
X210295D01*
X80551Y61024D02*
X145300Y125772D01*
Y166900D01*
X152500Y174100D01*
X197800D01*
X201900Y170000D01*
Y158848D02*
Y170000D01*
Y158848D02*
X232795Y127953D01*
X72791Y125591D02*
X74902D01*
X69518Y122318D02*
X72791Y125591D01*
X69518Y109881D02*
Y122318D01*
X63429Y103793D02*
X69518Y109881D01*
X49545Y103793D02*
X63429D01*
X46337Y107000D02*
X49545Y103793D01*
X37800Y107000D02*
X46337D01*
X37800Y36973D02*
Y107000D01*
X22795Y21969D02*
X37800Y36973D01*
X173900Y38300D02*
Y148777D01*
Y38300D02*
X193700D01*
X197900Y42500D01*
X205559D01*
X17800Y16964D02*
X22795Y11969D01*
X17800Y16964D02*
Y67000D01*
X25000D01*
X30200Y72200D01*
Y134400D01*
X32800Y137000D01*
X59752D01*
X62500Y134252D01*
X74902D01*
X70621Y129921D02*
X74902D01*
X54000Y113300D02*
X70621Y129921D01*
X54000Y108300D02*
Y113300D01*
X169291Y13319D02*
X175197Y19225D01*
Y32007D01*
X170900Y36303D02*
Y49572D01*
X156347Y51713D02*
X168760D01*
X169291Y23319D02*
Y30829D01*
X167900Y32221D02*
X169291Y30829D01*
X167900Y32221D02*
Y46667D01*
X167854Y46713D02*
X167900Y46667D01*
X156347Y46713D02*
X167854D01*
X184205Y42500D02*
Y42800D01*
X227800Y37000D02*
Y57000D01*
X236300D01*
X239300Y60000D01*
Y106700D01*
X239600Y107000D01*
X255000D01*
X257800Y109800D01*
Y126973D01*
X262795Y131969D01*
X200800Y57500D02*
X205559D01*
X195800Y52500D02*
X200800Y57500D01*
X184205Y52500D02*
X195800D01*
X184205Y57500D02*
X185900D01*
Y109700D02*
X189200Y113000D01*
X235000D01*
X237800Y115800D01*
Y137900D01*
X246900Y147000D01*
X257764D01*
X262795Y141969D01*
X165354Y157323D02*
X166400D01*
X151300Y62900D02*
X166400Y78000D01*
X151300Y41713D02*
Y62900D01*
Y41713D02*
X156347D01*
X86516Y125591D02*
X126969D01*
X86516Y129921D02*
X114173D01*
X86516Y134252D02*
X101378D01*
X192913Y13319D02*
X209185D01*
X210630Y14764D01*
D27*
X151417Y91969D02*
D03*
X70551Y61024D02*
D03*
X80866Y21654D02*
D03*
X108110D02*
D03*
D28*
X161417Y91969D02*
D03*
X196850Y167244D02*
D03*
X165354Y167323D02*
D03*
X42795Y11969D02*
D03*
Y21969D02*
D03*
Y31969D02*
D03*
Y41969D02*
D03*
Y51969D02*
D03*
X232795Y11969D02*
D03*
Y21969D02*
D03*
Y31969D02*
D03*
Y41969D02*
D03*
Y51969D02*
D03*
Y61969D02*
D03*
Y71969D02*
D03*
Y177953D02*
D03*
Y157953D02*
D03*
Y147953D02*
D03*
Y137953D02*
D03*
Y127953D02*
D03*
Y117953D02*
D03*
Y107953D02*
D03*
Y97953D02*
D03*
Y167953D02*
D03*
X169291Y23319D02*
D03*
X192913D02*
D03*
X22795Y11969D02*
D03*
X12795D02*
D03*
X22795Y21969D02*
D03*
X12795D02*
D03*
X22795Y31969D02*
D03*
X12795D02*
D03*
X22795Y41969D02*
D03*
X12795D02*
D03*
X22795Y51969D02*
D03*
X12795D02*
D03*
X22795Y61969D02*
D03*
X12795D02*
D03*
X22795Y71969D02*
D03*
X12795D02*
D03*
X22795Y81969D02*
D03*
X12795D02*
D03*
X22795Y91969D02*
D03*
X12795D02*
D03*
X22795Y101969D02*
D03*
X12795D02*
D03*
X22795Y111969D02*
D03*
X12795D02*
D03*
X22795Y121969D02*
D03*
X12795D02*
D03*
X22795Y131969D02*
D03*
X12795D02*
D03*
X22795Y141969D02*
D03*
X12795D02*
D03*
X22795Y151969D02*
D03*
X12795D02*
D03*
X22795Y161969D02*
D03*
X12795D02*
D03*
X22795Y171969D02*
D03*
X12795D02*
D03*
X22795Y181969D02*
D03*
X12795D02*
D03*
X22795Y191969D02*
D03*
X42795Y141969D02*
D03*
Y131969D02*
D03*
Y121969D02*
D03*
Y111969D02*
D03*
Y101969D02*
D03*
Y91969D02*
D03*
Y81969D02*
D03*
X262795Y11969D02*
D03*
X252795D02*
D03*
X262795Y21969D02*
D03*
X252795D02*
D03*
X262795Y31969D02*
D03*
X252795D02*
D03*
X262795Y41969D02*
D03*
X252795D02*
D03*
X262795Y51969D02*
D03*
X252795D02*
D03*
X262795Y61969D02*
D03*
X252795D02*
D03*
X262795Y71969D02*
D03*
X252795D02*
D03*
X262795Y81969D02*
D03*
X252795D02*
D03*
X262795Y91969D02*
D03*
X252795D02*
D03*
X262795Y101969D02*
D03*
X252795D02*
D03*
X262795Y111969D02*
D03*
X252795D02*
D03*
X262795Y121969D02*
D03*
X252795D02*
D03*
X262795Y131969D02*
D03*
X252795D02*
D03*
X262795Y141969D02*
D03*
X252795D02*
D03*
X262795Y151969D02*
D03*
X252795D02*
D03*
X262795Y161969D02*
D03*
X252795D02*
D03*
X262795Y171969D02*
D03*
X252795D02*
D03*
X262795Y181969D02*
D03*
X252795D02*
D03*
X262795Y191969D02*
D03*
X100551Y61024D02*
D03*
X90551D02*
D03*
X80551D02*
D03*
X70866Y21654D02*
D03*
X118110D02*
D03*
D29*
X196850Y157244D02*
D03*
X165354Y157323D02*
D03*
X42795Y61969D02*
D03*
X232795Y81969D02*
D03*
Y187953D02*
D03*
X169291Y13319D02*
D03*
X192913D02*
D03*
X12795Y191969D02*
D03*
X42795Y151969D02*
D03*
X252795Y191969D02*
D03*
D30*
X137795Y87016D02*
D03*
X153543Y150900D02*
D03*
X168760Y72835D02*
D03*
X54000Y108300D02*
D03*
X178400Y42800D02*
D03*
X227800Y37000D02*
D03*
M02*
